%TF.GenerationSoftware,KiCad,Pcbnew,(6.0.10-0)*%
%TF.CreationDate,2023-04-14T08:45:11-04:00*%
%TF.ProjectId,s100_ColorMagic-1.0-001,73313030-5f43-46f6-9c6f-724d61676963,1.0-001*%
%TF.SameCoordinates,Original*%
%TF.FileFunction,Other,User*%
%FSLAX46Y46*%
G04 Gerber Fmt 4.6, Leading zero omitted, Abs format (unit mm)*
G04 Created by KiCad (PCBNEW (6.0.10-0)) date 2023-04-14 08:45:11*
%MOMM*%
%LPD*%
G01*
G04 APERTURE LIST*
%ADD10C,0.050000*%
G04 APERTURE END LIST*
D10*
%TO.C,U67*%
X198450000Y-94610000D02*
X209150000Y-94610000D01*
X209150000Y-94610000D02*
X209150000Y-76160000D01*
X198450000Y-76160000D02*
X198450000Y-94610000D01*
X209150000Y-76160000D02*
X198450000Y-76160000D01*
%TO.C,U62*%
X198050000Y-143210000D02*
X208750000Y-143210000D01*
X198050000Y-124760000D02*
X198050000Y-143210000D01*
X208750000Y-124760000D02*
X198050000Y-124760000D01*
X208750000Y-143210000D02*
X208750000Y-124760000D01*
%TO.C,U51*%
X78730000Y-127410000D02*
X78730000Y-108960000D01*
X68030000Y-108960000D02*
X68030000Y-127410000D01*
X68030000Y-127410000D02*
X78730000Y-127410000D01*
X78730000Y-108960000D02*
X68030000Y-108960000D01*
%TO.C,U43*%
X185030000Y-88400000D02*
X185030000Y-114450000D01*
X195730000Y-114450000D02*
X195730000Y-88400000D01*
X195730000Y-88400000D02*
X185030000Y-88400000D01*
X185030000Y-114450000D02*
X195730000Y-114450000D01*
%TO.C,U17*%
X185830000Y-44360000D02*
X185830000Y-65360000D01*
X185830000Y-65360000D02*
X196530000Y-65360000D01*
X196530000Y-65360000D02*
X196530000Y-44360000D01*
X196530000Y-44360000D02*
X185830000Y-44360000D01*
%TO.C,C8*%
X104950000Y-56550000D02*
X104950000Y-49450000D01*
X104950000Y-49450000D02*
X102550000Y-49450000D01*
X102550000Y-56550000D02*
X104950000Y-56550000D01*
X102550000Y-49450000D02*
X102550000Y-56550000D01*
%TO.C,C3*%
X91850000Y-24950000D02*
X91850000Y-32050000D01*
X94250000Y-24950000D02*
X91850000Y-24950000D01*
X91850000Y-32050000D02*
X94250000Y-32050000D01*
X94250000Y-32050000D02*
X94250000Y-24950000D01*
%TO.C,U37*%
X79030000Y-80900000D02*
X68330000Y-80900000D01*
X79030000Y-106950000D02*
X79030000Y-80900000D01*
X68330000Y-106950000D02*
X79030000Y-106950000D01*
X68330000Y-80900000D02*
X68330000Y-106950000D01*
%TO.C,U66*%
X263730000Y-143210000D02*
X263730000Y-124760000D01*
X253030000Y-124760000D02*
X253030000Y-143210000D01*
X253030000Y-143210000D02*
X263730000Y-143210000D01*
X263730000Y-124760000D02*
X253030000Y-124760000D01*
%TO.C,R14*%
X79350000Y-112830000D02*
X81450000Y-112830000D01*
X79350000Y-105850000D02*
X79350000Y-112830000D01*
X81450000Y-112830000D02*
X81450000Y-105850000D01*
X81450000Y-105850000D02*
X79350000Y-105850000D01*
%TO.C,U6*%
X121830000Y-42850000D02*
X132530000Y-42850000D01*
X132530000Y-42850000D02*
X132530000Y-24400000D01*
X132530000Y-24400000D02*
X121830000Y-24400000D01*
X121830000Y-24400000D02*
X121830000Y-42850000D01*
%TO.C,Y1*%
X99750000Y-46400000D02*
X82450000Y-46400000D01*
X99750000Y-59500000D02*
X99750000Y-46400000D01*
X82450000Y-46400000D02*
X82450000Y-59500000D01*
X82450000Y-59500000D02*
X99750000Y-59500000D01*
%TO.C,U32*%
X195730000Y-86250000D02*
X195730000Y-67800000D01*
X185030000Y-67800000D02*
X185030000Y-86250000D01*
X185030000Y-86250000D02*
X195730000Y-86250000D01*
X195730000Y-67800000D02*
X185030000Y-67800000D01*
%TO.C,C33*%
X170145000Y-117715000D02*
X170145000Y-124815000D01*
X170145000Y-124815000D02*
X172545000Y-124815000D01*
X172545000Y-117715000D02*
X170145000Y-117715000D01*
X172545000Y-124815000D02*
X172545000Y-117715000D01*
%TO.C,U33*%
X211830000Y-73200000D02*
X211830000Y-91650000D01*
X222530000Y-91650000D02*
X222530000Y-73200000D01*
X222530000Y-73200000D02*
X211830000Y-73200000D01*
X211830000Y-91650000D02*
X222530000Y-91650000D01*
%TO.C,J4*%
X52400000Y-30800000D02*
X36100000Y-30800000D01*
X36100000Y-30800000D02*
X36100000Y-34400000D01*
X36100000Y-34400000D02*
X52400000Y-34400000D01*
X52400000Y-34400000D02*
X52400000Y-30800000D01*
%TO.C,U27*%
X131730000Y-89600000D02*
X131730000Y-68600000D01*
X121030000Y-89600000D02*
X131730000Y-89600000D01*
X131730000Y-68600000D02*
X121030000Y-68600000D01*
X121030000Y-68600000D02*
X121030000Y-89600000D01*
%TO.C,C15*%
X146725000Y-75565000D02*
X146725000Y-68465000D01*
X144325000Y-68465000D02*
X144325000Y-75565000D01*
X146725000Y-68465000D02*
X144325000Y-68465000D01*
X144325000Y-75565000D02*
X146725000Y-75565000D01*
%TO.C,R3*%
X216050000Y-32030000D02*
X216050000Y-25050000D01*
X216050000Y-25050000D02*
X213950000Y-25050000D01*
X213950000Y-32030000D02*
X216050000Y-32030000D01*
X213950000Y-25050000D02*
X213950000Y-32030000D01*
%TO.C,C17*%
X195900000Y-76325000D02*
X198300000Y-76325000D01*
X195900000Y-69225000D02*
X195900000Y-76325000D01*
X198300000Y-76325000D02*
X198300000Y-69225000D01*
X198300000Y-69225000D02*
X195900000Y-69225000D01*
%TO.C,C19*%
X79200000Y-76350000D02*
X79200000Y-83450000D01*
X79200000Y-83450000D02*
X81600000Y-83450000D01*
X81600000Y-83450000D02*
X81600000Y-76350000D01*
X81600000Y-76350000D02*
X79200000Y-76350000D01*
%TO.C,U29*%
X146950000Y-65260000D02*
X146950000Y-86260000D01*
X146950000Y-86260000D02*
X157650000Y-86260000D01*
X157650000Y-86260000D02*
X157650000Y-65260000D01*
X157650000Y-65260000D02*
X146950000Y-65260000D01*
%TO.C,R16*%
X81450000Y-93970000D02*
X79350000Y-93970000D01*
X79350000Y-93970000D02*
X79350000Y-100950000D01*
X79350000Y-100950000D02*
X81450000Y-100950000D01*
X81450000Y-100950000D02*
X81450000Y-93970000D01*
%TO.C,U55*%
X117930000Y-145150000D02*
X117930000Y-114000000D01*
X107230000Y-114000000D02*
X107230000Y-145150000D01*
X117930000Y-114000000D02*
X107230000Y-114000000D01*
X107230000Y-145150000D02*
X117930000Y-145150000D01*
%TO.C,H2*%
X26250000Y-31500000D02*
G75*
G03*
X26250000Y-31500000I-3250000J0D01*
G01*
%TO.C,JP4*%
X50800000Y-94000000D02*
X50800000Y-100150000D01*
X50800000Y-100150000D02*
X54400000Y-100150000D01*
X54400000Y-100150000D02*
X54400000Y-94000000D01*
X54400000Y-94000000D02*
X50800000Y-94000000D01*
%TO.C,R9*%
X210450000Y-42970000D02*
X210450000Y-49950000D01*
X212550000Y-49950000D02*
X212550000Y-42970000D01*
X210450000Y-49950000D02*
X212550000Y-49950000D01*
X212550000Y-42970000D02*
X210450000Y-42970000D01*
%TO.C,U20*%
X225850000Y-51900000D02*
X225850000Y-72900000D01*
X236550000Y-51900000D02*
X225850000Y-51900000D01*
X225850000Y-72900000D02*
X236550000Y-72900000D01*
X236550000Y-72900000D02*
X236550000Y-51900000D01*
%TO.C,U52*%
X65330000Y-121160000D02*
X54630000Y-121160000D01*
X54630000Y-121160000D02*
X54630000Y-139610000D01*
X54630000Y-139610000D02*
X65330000Y-139610000D01*
X65330000Y-139610000D02*
X65330000Y-121160000D01*
%TO.C,U57*%
X144930000Y-117140000D02*
X134230000Y-117140000D01*
X144930000Y-143190000D02*
X144930000Y-117140000D01*
X134230000Y-117140000D02*
X134230000Y-143190000D01*
X134230000Y-143190000D02*
X144930000Y-143190000D01*
%TO.C,C38*%
X222600000Y-123950000D02*
X222600000Y-131050000D01*
X225000000Y-123950000D02*
X222600000Y-123950000D01*
X225000000Y-131050000D02*
X225000000Y-123950000D01*
X222600000Y-131050000D02*
X225000000Y-131050000D01*
%TO.C,J3*%
X52400000Y-29050000D02*
X52400000Y-25450000D01*
X38650000Y-25450000D02*
X38650000Y-29050000D01*
X52400000Y-25450000D02*
X38650000Y-25450000D01*
X38650000Y-29050000D02*
X52400000Y-29050000D01*
%TO.C,JP12*%
X133800000Y-114650000D02*
X130200000Y-114650000D01*
X130200000Y-146200000D02*
X133800000Y-146200000D01*
X130200000Y-114650000D02*
X130200000Y-146200000D01*
X133800000Y-146200000D02*
X133800000Y-114650000D01*
%TO.C,R5*%
X220450000Y-25050000D02*
X218350000Y-25050000D01*
X218350000Y-25050000D02*
X218350000Y-32030000D01*
X220450000Y-32030000D02*
X220450000Y-25050000D01*
X218350000Y-32030000D02*
X220450000Y-32030000D01*
%TO.C,U12*%
X251730000Y-56420000D02*
X251730000Y-35420000D01*
X241030000Y-56420000D02*
X251730000Y-56420000D01*
X251730000Y-35420000D02*
X241030000Y-35420000D01*
X241030000Y-35420000D02*
X241030000Y-56420000D01*
%TO.C,U56*%
X129950000Y-143190000D02*
X129950000Y-117140000D01*
X119250000Y-117140000D02*
X119250000Y-143190000D01*
X119250000Y-143190000D02*
X129950000Y-143190000D01*
X129950000Y-117140000D02*
X119250000Y-117140000D01*
%TO.C,C4*%
X107850000Y-32050000D02*
X107850000Y-24950000D01*
X105450000Y-24950000D02*
X105450000Y-32050000D01*
X105450000Y-32050000D02*
X107850000Y-32050000D01*
X107850000Y-24950000D02*
X105450000Y-24950000D01*
%TO.C,R7*%
X121300000Y-39170000D02*
X119200000Y-39170000D01*
X119200000Y-46150000D02*
X121300000Y-46150000D01*
X121300000Y-46150000D02*
X121300000Y-39170000D01*
X119200000Y-39170000D02*
X119200000Y-46150000D01*
%TO.C,C39*%
X238600000Y-124325000D02*
X236200000Y-124325000D01*
X236200000Y-124325000D02*
X236200000Y-131425000D01*
X238600000Y-131425000D02*
X238600000Y-124325000D01*
X236200000Y-131425000D02*
X238600000Y-131425000D01*
%TO.C,R6*%
X222650000Y-32030000D02*
X222650000Y-25050000D01*
X220550000Y-32030000D02*
X222650000Y-32030000D01*
X220550000Y-25050000D02*
X220550000Y-32030000D01*
X222650000Y-25050000D02*
X220550000Y-25050000D01*
%TO.C,C6*%
X136100000Y-24950000D02*
X133700000Y-24950000D01*
X133700000Y-24950000D02*
X133700000Y-32050000D01*
X133700000Y-32050000D02*
X136100000Y-32050000D01*
X136100000Y-32050000D02*
X136100000Y-24950000D01*
%TO.C,R1*%
X209550000Y-25050000D02*
X209550000Y-32030000D01*
X211650000Y-32030000D02*
X211650000Y-25050000D01*
X209550000Y-32030000D02*
X211650000Y-32030000D01*
X211650000Y-25050000D02*
X209550000Y-25050000D01*
%TO.C,C20*%
X239200000Y-73850000D02*
X239200000Y-66750000D01*
X239200000Y-66750000D02*
X236800000Y-66750000D01*
X236800000Y-73850000D02*
X239200000Y-73850000D01*
X236800000Y-66750000D02*
X236800000Y-73850000D01*
%TO.C,R21*%
X32550000Y-43250000D02*
X22830000Y-43250000D01*
X32550000Y-46250000D02*
X32550000Y-43250000D01*
X22830000Y-43250000D02*
X22830000Y-46250000D01*
X22830000Y-46250000D02*
X32550000Y-46250000D01*
%TO.C,JP401*%
X49100000Y-49950000D02*
X49100000Y-52450000D01*
X52400000Y-52450000D02*
X49100000Y-52450000D01*
X52400000Y-52450000D02*
X52400000Y-49950000D01*
X49100000Y-49950000D02*
X52400000Y-49950000D01*
%TO.C,C1*%
X64770000Y-32050000D02*
X67170000Y-32050000D01*
X64770000Y-24950000D02*
X64770000Y-32050000D01*
X67170000Y-24950000D02*
X64770000Y-24950000D01*
X67170000Y-32050000D02*
X67170000Y-24950000D01*
%TO.C,C5*%
X119050000Y-32050000D02*
X121450000Y-32050000D01*
X121450000Y-24950000D02*
X119050000Y-24950000D01*
X119050000Y-24950000D02*
X119050000Y-32050000D01*
X121450000Y-32050000D02*
X121450000Y-24950000D01*
%TO.C,J2*%
X249550000Y-32150000D02*
X246150000Y-32150000D01*
X238950000Y-31650000D02*
X238950000Y-32150000D01*
X249550000Y-27950000D02*
X249550000Y-32150000D01*
X238100000Y-16550000D02*
X238100000Y-24550000D01*
X246900000Y-24550000D02*
X246900000Y-16550000D01*
X235350000Y-27950000D02*
X236950000Y-27950000D01*
X236950000Y-24550000D02*
X236950000Y-27950000D01*
X248250000Y-27950000D02*
X248250000Y-24550000D01*
X235350000Y-32150000D02*
X238950000Y-32150000D01*
X238100000Y-24550000D02*
X236950000Y-24550000D01*
X246900000Y-16550000D02*
X238100000Y-16550000D01*
X246150000Y-31650000D02*
X238950000Y-31650000D01*
X246150000Y-32150000D02*
X246150000Y-31650000D01*
X248250000Y-27950000D02*
X249550000Y-27950000D01*
X235350000Y-32150000D02*
X235350000Y-27950000D01*
X248250000Y-24550000D02*
X246900000Y-24550000D01*
%TO.C,U61*%
X195750000Y-143180000D02*
X195750000Y-117130000D01*
X195750000Y-117130000D02*
X185050000Y-117130000D01*
X185050000Y-143180000D02*
X195750000Y-143180000D01*
X185050000Y-117130000D02*
X185050000Y-143180000D01*
%TO.C,C11*%
X236800000Y-59550000D02*
X239200000Y-59550000D01*
X236800000Y-52450000D02*
X236800000Y-59550000D01*
X239200000Y-59550000D02*
X239200000Y-52450000D01*
X239200000Y-52450000D02*
X236800000Y-52450000D01*
%TO.C,C24*%
X172475000Y-89000000D02*
X170075000Y-89000000D01*
X170075000Y-96100000D02*
X172475000Y-96100000D01*
X172475000Y-96100000D02*
X172475000Y-89000000D01*
X170075000Y-89000000D02*
X170075000Y-96100000D01*
%TO.C,U46*%
X226080000Y-120150000D02*
X236780000Y-120150000D01*
X236780000Y-99150000D02*
X226080000Y-99150000D01*
X236780000Y-120150000D02*
X236780000Y-99150000D01*
X226080000Y-99150000D02*
X226080000Y-120150000D01*
%TO.C,R17*%
X65750000Y-115370000D02*
X65750000Y-122350000D01*
X65750000Y-122350000D02*
X67850000Y-122350000D01*
X67850000Y-122350000D02*
X67850000Y-115370000D01*
X67850000Y-115370000D02*
X65750000Y-115370000D01*
%TO.C,U1*%
X64500000Y-24400000D02*
X53800000Y-24400000D01*
X64500000Y-50450000D02*
X64500000Y-24400000D01*
X53800000Y-50450000D02*
X64500000Y-50450000D01*
X53800000Y-24400000D02*
X53800000Y-50450000D01*
%TO.C,JP10*%
X50580000Y-141200000D02*
X50580000Y-144800000D01*
X77030000Y-141200000D02*
X50580000Y-141200000D01*
X50580000Y-144800000D02*
X77030000Y-144800000D01*
X77030000Y-144800000D02*
X77030000Y-141200000D01*
%TO.C,JP3*%
X50700000Y-93990000D02*
X47100000Y-93990000D01*
X47100000Y-100140000D02*
X50700000Y-100140000D01*
X47100000Y-93990000D02*
X47100000Y-100140000D01*
X50700000Y-100140000D02*
X50700000Y-93990000D01*
%TO.C,U41*%
X169950000Y-88450000D02*
X159250000Y-88450000D01*
X169950000Y-114500000D02*
X169950000Y-88450000D01*
X159250000Y-114500000D02*
X169950000Y-114500000D01*
X159250000Y-88450000D02*
X159250000Y-114500000D01*
%TO.C,U7*%
X163800000Y-60650000D02*
X163800000Y-24400000D01*
X145450000Y-60650000D02*
X163800000Y-60650000D01*
X163800000Y-24400000D02*
X145450000Y-24400000D01*
X145450000Y-24400000D02*
X145450000Y-60650000D01*
%TO.C,C36*%
X52780000Y-46500000D02*
G75*
G03*
X52780000Y-46500000I-2530000J0D01*
G01*
%TO.C,U8*%
X165450000Y-24400000D02*
X165450000Y-60650000D01*
X183800000Y-60650000D02*
X183800000Y-24400000D01*
X165450000Y-60650000D02*
X183800000Y-60650000D01*
X183800000Y-24400000D02*
X165450000Y-24400000D01*
%TO.C,U19*%
X223150000Y-71600000D02*
X223150000Y-53150000D01*
X223150000Y-53150000D02*
X212450000Y-53150000D01*
X212450000Y-53150000D02*
X212450000Y-71600000D01*
X212450000Y-71600000D02*
X223150000Y-71600000D01*
%TO.C,C18*%
X65800000Y-53950000D02*
X65800000Y-61050000D01*
X65800000Y-61050000D02*
X68200000Y-61050000D01*
X68200000Y-53950000D02*
X65800000Y-53950000D01*
X68200000Y-61050000D02*
X68200000Y-53950000D01*
%TO.C,U34*%
X226130000Y-74270000D02*
X226130000Y-95270000D01*
X226130000Y-95270000D02*
X236830000Y-95270000D01*
X236830000Y-74270000D02*
X226130000Y-74270000D01*
X236830000Y-95270000D02*
X236830000Y-74270000D01*
%TO.C,C21*%
X252800000Y-84350000D02*
X252800000Y-77250000D01*
X252800000Y-77250000D02*
X250400000Y-77250000D01*
X250400000Y-84350000D02*
X252800000Y-84350000D01*
X250400000Y-77250000D02*
X250400000Y-84350000D01*
%TO.C,C7*%
X141300000Y-24950000D02*
X141300000Y-32050000D01*
X141300000Y-32050000D02*
X143700000Y-32050000D01*
X143700000Y-32050000D02*
X143700000Y-24950000D01*
X143700000Y-24950000D02*
X141300000Y-24950000D01*
%TO.C,U4*%
X94500000Y-45400000D02*
X105200000Y-45400000D01*
X105200000Y-45400000D02*
X105200000Y-24400000D01*
X94500000Y-24400000D02*
X94500000Y-45400000D01*
X105200000Y-24400000D02*
X94500000Y-24400000D01*
%TO.C,U2*%
X78000000Y-50450000D02*
X78000000Y-24400000D01*
X67300000Y-24400000D02*
X67300000Y-50450000D01*
X78000000Y-24400000D02*
X67300000Y-24400000D01*
X67300000Y-50450000D02*
X78000000Y-50450000D01*
%TO.C,U15*%
X132530000Y-66600000D02*
X132530000Y-45600000D01*
X121830000Y-66600000D02*
X132530000Y-66600000D01*
X132530000Y-45600000D02*
X121830000Y-45600000D01*
X121830000Y-45600000D02*
X121830000Y-66600000D01*
%TO.C,C10*%
X65800000Y-81450000D02*
X65800000Y-88550000D01*
X68200000Y-81450000D02*
X65800000Y-81450000D01*
X65800000Y-88550000D02*
X68200000Y-88550000D01*
X68200000Y-88550000D02*
X68200000Y-81450000D01*
%TO.C,U38*%
X131730000Y-91400000D02*
X121030000Y-91400000D01*
X121030000Y-91400000D02*
X121030000Y-112400000D01*
X121030000Y-112400000D02*
X131730000Y-112400000D01*
X131730000Y-112400000D02*
X131730000Y-91400000D01*
%TO.C,U5*%
X108100000Y-50450000D02*
X118800000Y-50450000D01*
X108100000Y-24400000D02*
X108100000Y-50450000D01*
X118800000Y-50450000D02*
X118800000Y-24400000D01*
X118800000Y-24400000D02*
X108100000Y-24400000D01*
%TO.C,JP6*%
X81620000Y-112790000D02*
X81620000Y-118940000D01*
X102970000Y-112790000D02*
X81620000Y-112790000D01*
X81620000Y-118940000D02*
X102970000Y-118940000D01*
X102970000Y-118940000D02*
X102970000Y-112790000D01*
%TO.C,C26*%
X226000000Y-102050000D02*
X226000000Y-94950000D01*
X223600000Y-102050000D02*
X226000000Y-102050000D01*
X223600000Y-94950000D02*
X223600000Y-102050000D01*
X226000000Y-94950000D02*
X223600000Y-94950000D01*
%TO.C,U59*%
X170050000Y-117130000D02*
X159350000Y-117130000D01*
X170050000Y-143180000D02*
X170050000Y-117130000D01*
X159350000Y-117130000D02*
X159350000Y-143180000D01*
X159350000Y-143180000D02*
X170050000Y-143180000D01*
%TO.C,R2*%
X213850000Y-25050000D02*
X211750000Y-25050000D01*
X213850000Y-32030000D02*
X213850000Y-25050000D01*
X211750000Y-32030000D02*
X213850000Y-32030000D01*
X211750000Y-25050000D02*
X211750000Y-32030000D01*
%TO.C,U49*%
X47770000Y-41960000D02*
X47770000Y-36500000D01*
X52510000Y-36500000D02*
X52510000Y-41960000D01*
X52510000Y-36500000D02*
X47770000Y-36500000D01*
X47770000Y-41960000D02*
X52510000Y-41960000D01*
%TO.C,JP7*%
X81200000Y-120800000D02*
X81200000Y-124400000D01*
X89850000Y-120800000D02*
X81200000Y-120800000D01*
X89850000Y-124400000D02*
X89850000Y-120800000D01*
X81200000Y-124400000D02*
X89850000Y-124400000D01*
%TO.C,C34*%
X195870000Y-115290000D02*
X195870000Y-122390000D01*
X198270000Y-115290000D02*
X195870000Y-115290000D01*
X198270000Y-122390000D02*
X198270000Y-115290000D01*
X195870000Y-122390000D02*
X198270000Y-122390000D01*
%TO.C,JP2*%
X54660000Y-93800000D02*
X60810000Y-93800000D01*
X60810000Y-93800000D02*
X60810000Y-90200000D01*
X54660000Y-90200000D02*
X54660000Y-93800000D01*
X60810000Y-90200000D02*
X54660000Y-90200000D01*
%TO.C,U54*%
X106530000Y-145090000D02*
X106530000Y-119040000D01*
X106530000Y-119040000D02*
X95830000Y-119040000D01*
X95830000Y-145090000D02*
X106530000Y-145090000D01*
X95830000Y-119040000D02*
X95830000Y-145090000D01*
%TO.C,U65*%
X239030000Y-143210000D02*
X249730000Y-143210000D01*
X249730000Y-143210000D02*
X249730000Y-124760000D01*
X249730000Y-124760000D02*
X239030000Y-124760000D01*
X239030000Y-124760000D02*
X239030000Y-143210000D01*
%TO.C,U58*%
X146050000Y-117140000D02*
X146050000Y-143190000D01*
X156750000Y-117140000D02*
X146050000Y-117140000D01*
X156750000Y-143190000D02*
X156750000Y-117140000D01*
X146050000Y-143190000D02*
X156750000Y-143190000D01*
%TO.C,U47*%
X239430000Y-122650000D02*
X250130000Y-122650000D01*
X250130000Y-122650000D02*
X250130000Y-96600000D01*
X250130000Y-96600000D02*
X239430000Y-96600000D01*
X239430000Y-96600000D02*
X239430000Y-122650000D01*
%TO.C,U42*%
X183355000Y-88500000D02*
X172655000Y-88500000D01*
X183355000Y-114550000D02*
X183355000Y-88500000D01*
X172655000Y-88500000D02*
X172655000Y-114550000D01*
X172655000Y-114550000D02*
X183355000Y-114550000D01*
%TO.C,U39*%
X133450000Y-114450000D02*
X144150000Y-114450000D01*
X144150000Y-114450000D02*
X144150000Y-88400000D01*
X133450000Y-88400000D02*
X133450000Y-114450000D01*
X144150000Y-88400000D02*
X133450000Y-88400000D01*
%TO.C,Q1*%
X219710000Y-39760000D02*
X214250000Y-39760000D01*
X214250000Y-35020000D02*
X219710000Y-35020000D01*
X219710000Y-39760000D02*
X219710000Y-35020000D01*
X214250000Y-35020000D02*
X214250000Y-39760000D01*
%TO.C,U10*%
X198330000Y-45400000D02*
X209030000Y-45400000D01*
X209030000Y-45400000D02*
X209030000Y-24400000D01*
X209030000Y-24400000D02*
X198330000Y-24400000D01*
X198330000Y-24400000D02*
X198330000Y-45400000D01*
%TO.C,JP15*%
X245850000Y-143600000D02*
X245850000Y-147200000D01*
X252000000Y-147200000D02*
X252000000Y-143600000D01*
X252000000Y-143600000D02*
X245850000Y-143600000D01*
X245850000Y-147200000D02*
X252000000Y-147200000D01*
%TO.C,C12*%
X250350000Y-65000000D02*
X252750000Y-65000000D01*
X252750000Y-57900000D02*
X250350000Y-57900000D01*
X252750000Y-65000000D02*
X252750000Y-57900000D01*
X250350000Y-57900000D02*
X250350000Y-65000000D01*
%TO.C,RN2*%
X91550000Y-145050000D02*
X94850000Y-145050000D01*
X94850000Y-145050000D02*
X94850000Y-121300000D01*
X94850000Y-121300000D02*
X91550000Y-121300000D01*
X91550000Y-121300000D02*
X91550000Y-145050000D01*
%TO.C,C37*%
X50750000Y-135083500D02*
G75*
G03*
X50750000Y-135083500I-2750000J0D01*
G01*
%TO.C,C25*%
X195925000Y-88950000D02*
X195925000Y-96050000D01*
X198325000Y-96050000D02*
X198325000Y-88950000D01*
X198325000Y-88950000D02*
X195925000Y-88950000D01*
X195925000Y-96050000D02*
X198325000Y-96050000D01*
%TO.C,RN1*%
X226050000Y-73060000D02*
X222750000Y-73060000D01*
X226050000Y-94260000D02*
X226050000Y-73060000D01*
X222750000Y-73060000D02*
X222750000Y-94260000D01*
X222750000Y-94260000D02*
X226050000Y-94260000D01*
%TO.C,C31*%
X211400000Y-140150000D02*
X211400000Y-133050000D01*
X211400000Y-133050000D02*
X209000000Y-133050000D01*
X209000000Y-140150000D02*
X211400000Y-140150000D01*
X209000000Y-133050000D02*
X209000000Y-140150000D01*
%TO.C,U13*%
X263730000Y-56410000D02*
X263730000Y-37960000D01*
X253030000Y-37960000D02*
X253030000Y-56410000D01*
X263730000Y-37960000D02*
X253030000Y-37960000D01*
X253030000Y-56410000D02*
X263730000Y-56410000D01*
%TO.C,U36*%
X253050000Y-95210000D02*
X263750000Y-95210000D01*
X263750000Y-95210000D02*
X263750000Y-76760000D01*
X263750000Y-76760000D02*
X253050000Y-76760000D01*
X253050000Y-76760000D02*
X253050000Y-95210000D01*
%TO.C,U26*%
X101210000Y-60900000D02*
X101210000Y-112350000D01*
X119560000Y-112350000D02*
X119560000Y-60900000D01*
X119560000Y-60900000D02*
X101210000Y-60900000D01*
X101210000Y-112350000D02*
X119560000Y-112350000D01*
%TO.C,R4*%
X216150000Y-32030000D02*
X218250000Y-32030000D01*
X218250000Y-25050000D02*
X216150000Y-25050000D01*
X218250000Y-32030000D02*
X218250000Y-25050000D01*
X216150000Y-25050000D02*
X216150000Y-32030000D01*
%TO.C,R15*%
X67850000Y-106950000D02*
X67850000Y-99970000D01*
X65750000Y-99970000D02*
X65750000Y-106950000D01*
X65750000Y-106950000D02*
X67850000Y-106950000D01*
X67850000Y-99970000D02*
X65750000Y-99970000D01*
%TO.C,U9*%
X185830000Y-42850000D02*
X196530000Y-42850000D01*
X185830000Y-24400000D02*
X185830000Y-42850000D01*
X196530000Y-24400000D02*
X185830000Y-24400000D01*
X196530000Y-42850000D02*
X196530000Y-24400000D01*
%TO.C,JP9*%
X74800000Y-138170000D02*
X74800000Y-129520000D01*
X74800000Y-129520000D02*
X71200000Y-129520000D01*
X71200000Y-138170000D02*
X74800000Y-138170000D01*
X71200000Y-129520000D02*
X71200000Y-138170000D01*
%TO.C,C40*%
X252600000Y-131425000D02*
X252600000Y-124325000D01*
X250200000Y-124325000D02*
X250200000Y-131425000D01*
X250200000Y-131425000D02*
X252600000Y-131425000D01*
X252600000Y-124325000D02*
X250200000Y-124325000D01*
%TO.C,U30*%
X169900000Y-85525000D02*
X169900000Y-67075000D01*
X159200000Y-85525000D02*
X169900000Y-85525000D01*
X159200000Y-67075000D02*
X159200000Y-85525000D01*
X169900000Y-67075000D02*
X159200000Y-67075000D01*
%TO.C,C9*%
X215400000Y-50050000D02*
X215400000Y-42950000D01*
X215400000Y-42950000D02*
X213000000Y-42950000D01*
X213000000Y-42950000D02*
X213000000Y-50050000D01*
X213000000Y-50050000D02*
X215400000Y-50050000D01*
%TO.C,U69*%
X16080000Y-69100000D02*
X26780000Y-69100000D01*
X26780000Y-69100000D02*
X26780000Y-50650000D01*
X16080000Y-50650000D02*
X16080000Y-69100000D01*
X26780000Y-50650000D02*
X16080000Y-50650000D01*
%TO.C,U31*%
X183355000Y-67875000D02*
X172655000Y-67875000D01*
X183355000Y-86325000D02*
X183355000Y-67875000D01*
X172655000Y-67875000D02*
X172655000Y-86325000D01*
X172655000Y-86325000D02*
X183355000Y-86325000D01*
%TO.C,JP5*%
X50800000Y-106450000D02*
X54400000Y-106450000D01*
X54400000Y-106450000D02*
X54400000Y-100300000D01*
X54400000Y-100300000D02*
X50800000Y-100300000D01*
X50800000Y-100300000D02*
X50800000Y-106450000D01*
%TO.C,C13*%
X44030000Y-142750000D02*
G75*
G03*
X44030000Y-142750000I-2530000J0D01*
G01*
%TO.C,U60*%
X183375000Y-117090000D02*
X172675000Y-117090000D01*
X183375000Y-143140000D02*
X183375000Y-117090000D01*
X172675000Y-117090000D02*
X172675000Y-143140000D01*
X172675000Y-143140000D02*
X183375000Y-143140000D01*
%TO.C,C28*%
X250350000Y-97175000D02*
X250350000Y-104275000D01*
X250350000Y-104275000D02*
X252750000Y-104275000D01*
X252750000Y-104275000D02*
X252750000Y-97175000D01*
X252750000Y-97175000D02*
X250350000Y-97175000D01*
%TO.C,JP1*%
X209150000Y-97200000D02*
X209150000Y-118550000D01*
X212750000Y-97200000D02*
X209150000Y-97200000D01*
X209150000Y-118550000D02*
X212750000Y-118550000D01*
X212750000Y-118550000D02*
X212750000Y-97200000D01*
%TO.C,U16*%
X133330000Y-64810000D02*
X144030000Y-64810000D01*
X144030000Y-33660000D02*
X133330000Y-33660000D01*
X144030000Y-64810000D02*
X144030000Y-33660000D01*
X133330000Y-33660000D02*
X133330000Y-64810000D01*
%TO.C,U40*%
X146900000Y-114475000D02*
X157600000Y-114475000D01*
X157600000Y-114475000D02*
X157600000Y-88425000D01*
X157600000Y-88425000D02*
X146900000Y-88425000D01*
X146900000Y-88425000D02*
X146900000Y-114475000D01*
%TO.C,JP13*%
X23500000Y-69950000D02*
X23500000Y-78600000D01*
X27100000Y-78600000D02*
X27100000Y-69950000D01*
X23500000Y-78600000D02*
X27100000Y-78600000D01*
X27100000Y-69950000D02*
X23500000Y-69950000D01*
%TO.C,U24*%
X68330000Y-79450000D02*
X79030000Y-79450000D01*
X79030000Y-53400000D02*
X68330000Y-53400000D01*
X68330000Y-53400000D02*
X68330000Y-79450000D01*
X79030000Y-79450000D02*
X79030000Y-53400000D01*
%TO.C,U50*%
X65330000Y-97600000D02*
X54630000Y-97600000D01*
X54630000Y-118600000D02*
X65330000Y-118600000D01*
X65330000Y-118600000D02*
X65330000Y-97600000D01*
X54630000Y-97600000D02*
X54630000Y-118600000D01*
%TO.C,U14*%
X45450000Y-102600000D02*
X37450000Y-90700000D01*
X45450000Y-115200000D02*
X37450000Y-127100000D01*
X20550000Y-102600000D02*
X28550000Y-90700000D01*
X20550000Y-115200000D02*
X28550000Y-127100000D01*
X28550000Y-127100000D02*
G75*
G03*
X37450000Y-127100000I4450000J3100008D01*
G01*
X37450000Y-90700000D02*
G75*
G03*
X28550000Y-90700000I-4450000J-3100010D01*
G01*
X45450000Y-115200000D02*
G75*
G03*
X45450000Y-102600000I-12450023J6300000D01*
G01*
X20550000Y-102600000D02*
G75*
G03*
X20550000Y-115200000I12450004J-6300000D01*
G01*
%TO.C,C30*%
X78600000Y-137450000D02*
X78600000Y-130350000D01*
X76200000Y-130350000D02*
X76200000Y-137450000D01*
X78600000Y-130350000D02*
X76200000Y-130350000D01*
X76200000Y-137450000D02*
X78600000Y-137450000D01*
%TO.C,U28*%
X144150000Y-67800000D02*
X133450000Y-67800000D01*
X133450000Y-67800000D02*
X133450000Y-86250000D01*
X133450000Y-86250000D02*
X144150000Y-86250000D01*
X144150000Y-86250000D02*
X144150000Y-67800000D01*
%TO.C,C29*%
X51400000Y-121450000D02*
X51400000Y-128550000D01*
X53800000Y-128550000D02*
X53800000Y-121450000D01*
X51400000Y-128550000D02*
X53800000Y-128550000D01*
X53800000Y-121450000D02*
X51400000Y-121450000D01*
%TO.C,U25*%
X100060000Y-60900000D02*
X81710000Y-60900000D01*
X81710000Y-112350000D02*
X100060000Y-112350000D01*
X100060000Y-112350000D02*
X100060000Y-60900000D01*
X81710000Y-60900000D02*
X81710000Y-112350000D01*
%TO.C,U48*%
X263730000Y-122590000D02*
X263730000Y-96540000D01*
X253030000Y-96540000D02*
X253030000Y-122590000D01*
X253030000Y-122590000D02*
X263730000Y-122590000D01*
X263730000Y-96540000D02*
X253030000Y-96540000D01*
%TO.C,U44*%
X209030000Y-122390000D02*
X209030000Y-96340000D01*
X198330000Y-122390000D02*
X209030000Y-122390000D01*
X198330000Y-96340000D02*
X198330000Y-122390000D01*
X209030000Y-96340000D02*
X198330000Y-96340000D01*
%TO.C,R10*%
X223450000Y-60780000D02*
X225550000Y-60780000D01*
X225550000Y-53800000D02*
X223450000Y-53800000D01*
X225550000Y-60780000D02*
X225550000Y-53800000D01*
X223450000Y-53800000D02*
X223450000Y-60780000D01*
%TO.C,U23*%
X47210000Y-53400000D02*
X47210000Y-89650000D01*
X65560000Y-53400000D02*
X47210000Y-53400000D01*
X47210000Y-89650000D02*
X65560000Y-89650000D01*
X65560000Y-89650000D02*
X65560000Y-53400000D01*
%TO.C,C35*%
X36550000Y-43300000D02*
X38950000Y-43300000D01*
X36550000Y-36200000D02*
X36550000Y-43300000D01*
X38950000Y-43300000D02*
X38950000Y-36200000D01*
X38950000Y-36200000D02*
X36550000Y-36200000D01*
%TO.C,U68*%
X46160000Y-50710000D02*
X27810000Y-50710000D01*
X46160000Y-81860000D02*
X46160000Y-50710000D01*
X27810000Y-50710000D02*
X27810000Y-81860000D01*
X27810000Y-81860000D02*
X46160000Y-81860000D01*
%TO.C,U35*%
X250130000Y-76760000D02*
X239430000Y-76760000D01*
X239430000Y-95210000D02*
X250130000Y-95210000D01*
X239430000Y-76760000D02*
X239430000Y-95210000D01*
X250130000Y-95210000D02*
X250130000Y-76760000D01*
%TO.C,U22*%
X253030000Y-57260000D02*
X253030000Y-75710000D01*
X263730000Y-75710000D02*
X263730000Y-57260000D01*
X253030000Y-75710000D02*
X263730000Y-75710000D01*
X263730000Y-57260000D02*
X253030000Y-57260000D01*
%TO.C,U53*%
X79830000Y-126400000D02*
X79830000Y-144850000D01*
X90530000Y-126400000D02*
X79830000Y-126400000D01*
X90530000Y-144850000D02*
X90530000Y-126400000D01*
X79830000Y-144850000D02*
X90530000Y-144850000D01*
%TO.C,C27*%
X236875000Y-104350000D02*
X239275000Y-104350000D01*
X239275000Y-104350000D02*
X239275000Y-97250000D01*
X236875000Y-97250000D02*
X236875000Y-104350000D01*
X239275000Y-97250000D02*
X236875000Y-97250000D01*
%TO.C,U63*%
X211650000Y-124760000D02*
X211650000Y-143210000D01*
X222350000Y-124760000D02*
X211650000Y-124760000D01*
X222350000Y-143210000D02*
X222350000Y-124760000D01*
X211650000Y-143210000D02*
X222350000Y-143210000D01*
%TO.C,U21*%
X250130000Y-75750000D02*
X250130000Y-57300000D01*
X250130000Y-57300000D02*
X239430000Y-57300000D01*
X239430000Y-57300000D02*
X239430000Y-75750000D01*
X239430000Y-75750000D02*
X250130000Y-75750000D01*
%TO.C,C14*%
X68200000Y-76050000D02*
X68200000Y-68950000D01*
X68200000Y-68950000D02*
X65800000Y-68950000D01*
X65800000Y-76050000D02*
X68200000Y-76050000D01*
X65800000Y-68950000D02*
X65800000Y-76050000D01*
%TO.C,U3*%
X80900000Y-45400000D02*
X91600000Y-45400000D01*
X80900000Y-24400000D02*
X80900000Y-45400000D01*
X91600000Y-24400000D02*
X80900000Y-24400000D01*
X91600000Y-45400000D02*
X91600000Y-24400000D01*
%TO.C,J1*%
X240610000Y-35400000D02*
X234460000Y-35400000D01*
X240610000Y-49150000D02*
X240610000Y-35400000D01*
X234460000Y-35400000D02*
X234460000Y-49150000D01*
X234460000Y-49150000D02*
X240610000Y-49150000D01*
%TO.C,C22*%
X40300000Y-129450000D02*
X40300000Y-136550000D01*
X40300000Y-136550000D02*
X42700000Y-136550000D01*
X42700000Y-129450000D02*
X40300000Y-129450000D01*
X42700000Y-136550000D02*
X42700000Y-129450000D01*
%TO.C,JP8*%
X70600000Y-129520000D02*
X67000000Y-129520000D01*
X70600000Y-138170000D02*
X70600000Y-129520000D01*
X67000000Y-129520000D02*
X67000000Y-138170000D01*
X67000000Y-138170000D02*
X70600000Y-138170000D01*
%TO.C,R8*%
X116880000Y-54050000D02*
X116880000Y-51950000D01*
X116880000Y-51950000D02*
X109900000Y-51950000D01*
X109900000Y-54050000D02*
X116880000Y-54050000D01*
X109900000Y-51950000D02*
X109900000Y-54050000D01*
%TO.C,R11*%
X219950000Y-49950000D02*
X222050000Y-49950000D01*
X222050000Y-49950000D02*
X222050000Y-42970000D01*
X219950000Y-42970000D02*
X219950000Y-49950000D01*
X222050000Y-42970000D02*
X219950000Y-42970000D01*
%TO.C,H1*%
X258050000Y-30200000D02*
G75*
G03*
X258050000Y-30200000I-3250000J0D01*
G01*
%TO.C,C32*%
X159220000Y-117740000D02*
X156820000Y-117740000D01*
X159220000Y-124840000D02*
X159220000Y-117740000D01*
X156820000Y-117740000D02*
X156820000Y-124840000D01*
X156820000Y-124840000D02*
X159220000Y-124840000D01*
%TO.C,C23*%
X146725000Y-96050000D02*
X146725000Y-88950000D01*
X144325000Y-96050000D02*
X146725000Y-96050000D01*
X144325000Y-88950000D02*
X144325000Y-96050000D01*
X146725000Y-88950000D02*
X144325000Y-88950000D01*
%TO.C,U64*%
X225230000Y-143210000D02*
X235930000Y-143210000D01*
X225230000Y-124760000D02*
X225230000Y-143210000D01*
X235930000Y-143210000D02*
X235930000Y-124760000D01*
X235930000Y-124760000D02*
X225230000Y-124760000D01*
%TO.C,C16*%
X170075000Y-68590000D02*
X170075000Y-75690000D01*
X172475000Y-75690000D02*
X172475000Y-68590000D01*
X172475000Y-68590000D02*
X170075000Y-68590000D01*
X170075000Y-75690000D02*
X172475000Y-75690000D01*
%TO.C,U45*%
X223530000Y-94940000D02*
X212830000Y-94940000D01*
X223530000Y-120990000D02*
X223530000Y-94940000D01*
X212830000Y-94940000D02*
X212830000Y-120990000D01*
X212830000Y-120990000D02*
X223530000Y-120990000D01*
%TO.C,C2*%
X80650000Y-24950000D02*
X78250000Y-24950000D01*
X78250000Y-32050000D02*
X80650000Y-32050000D01*
X78250000Y-24950000D02*
X78250000Y-32050000D01*
X80650000Y-32050000D02*
X80650000Y-24950000D01*
%TO.C,U11*%
X223230000Y-50590000D02*
X233930000Y-50590000D01*
X233930000Y-24540000D02*
X223230000Y-24540000D01*
X233930000Y-50590000D02*
X233930000Y-24540000D01*
X223230000Y-24540000D02*
X223230000Y-50590000D01*
%TO.C,U18*%
X209130000Y-46540000D02*
X198430000Y-46540000D01*
X209130000Y-72590000D02*
X209130000Y-46540000D01*
X198430000Y-72590000D02*
X209130000Y-72590000D01*
X198430000Y-46540000D02*
X198430000Y-72590000D01*
%TO.C,JP14*%
X29150000Y-25450000D02*
X29150000Y-29050000D01*
X35300000Y-25450000D02*
X29150000Y-25450000D01*
X29150000Y-29050000D02*
X35300000Y-29050000D01*
X35300000Y-29050000D02*
X35300000Y-25450000D01*
%TD*%
M02*
