M48
; DRILL file {KiCad (6.0.10-0)} date Friday, April 14, 2023 at 08:44:59 AM
; FORMAT={2:4/ absolute / inch / suppress leading zeros}
; #@! TF.CreationDate,2023-04-14T08:44:59-04:00
; #@! TF.GenerationSoftware,Kicad,Pcbnew,(6.0.10-0)
; #@! TF.FileFunction,Plated,1,4,PTH
FMAT,2
INCH,TZ
; #@! TA.AperFunction,Plated,PTH,ViaDrill
T1C0.0100
; #@! TA.AperFunction,Plated,PTH,ComponentDrill
T2C0.0276
; #@! TA.AperFunction,Plated,PTH,ComponentDrill
T3C0.0295
; #@! TA.AperFunction,Plated,PTH,ComponentDrill
T4C0.0315
; #@! TA.AperFunction,Plated,PTH,ComponentDrill
T5C0.0394
; #@! TA.AperFunction,Plated,PTH,ComponentDrill
T6C0.0512
; #@! TA.AperFunction,Plated,PTH,ComponentDrill
T7C0.0669
; #@! TA.AperFunction,Plated,PTH,ComponentDrill
T8C0.1024
; #@! TA.AperFunction,Plated,PTH,ComponentDrill
T9C0.1181
; #@! TA.AperFunction,Plated,PTH,ComponentDrill
T10C0.1575
%
G90
G05
T1
X14205Y-27960
X14374Y-32059
X15956Y-37370
X16017Y-30785
X16150Y-40281
X16544Y-30998
X18069Y-34216
X18113Y-14293
X18151Y-30304
X18724Y-28974
X20171Y-35991
X20394Y-15802
X20480Y-25985
X20750Y-15775
X21001Y-25850
X21500Y-40513
X22318Y-18006
X22976Y-19151
X22998Y-35693
X23209Y-22937
X23217Y-28569
X23375Y-19477
X23494Y-32335
X24222Y-36170
X24278Y-35772
X24562Y-25448
X24702Y-35159
X24713Y-26845
X25014Y-49831
X25727Y-25474
X26056Y-29918
X26364Y-39228
X27538Y-31400
X28039Y-10213
X28500Y-27404
X29129Y-49597
X29326Y-27984
X29854Y-19933
X29965Y-29721
X29975Y-49971
X30417Y-33002
X30621Y-20858
X30629Y-18254
X30647Y-20434
X30651Y-31727
X30933Y-33797
X30955Y-18659
X30995Y-28529
X31168Y-41283
X31184Y-48817
X31274Y-27249
X31274Y-27975
X31607Y-21113
X31750Y-22800
X31802Y-29502
X31821Y-35862
X32073Y-36052
X32140Y-28999
X32312Y-26812
X32497Y-24124
X32672Y-36106
X32864Y-39106
X32931Y-47101
X32952Y-42106
X33208Y-10774
X33549Y-25594
X33557Y-26420
X33563Y-18646
X33618Y-27164
X33651Y-28006
X33651Y-31606
X33651Y-29606
X33712Y-17259
X33951Y-44441
X33964Y-28425
X34052Y-51070
X34435Y-32606
X34446Y-18322
X34564Y-23736
X34671Y-23320
X34745Y-49741
X34839Y-23521
X35034Y-32310
X35639Y-55844
X36038Y-31589
X36212Y-20237
X36241Y-15477
X36266Y-19447
X36403Y-18849
X36799Y-19686
X36817Y-46750
X37170Y-23861
X37270Y-31277
X37295Y-57444
X37391Y-22206
X37464Y-28016
X37501Y-27221
X38017Y-50102
X38371Y-10022
X38556Y-21128
X39330Y-46631
X39458Y-32784
X39802Y-52869
X39851Y-21008
X39870Y-14254
X40108Y-51339
X40154Y-58331
X40301Y-13706
X40374Y-22985
X40518Y-18242
X40765Y-22963
X41364Y-22626
X41492Y-14663
X41612Y-58330
X42008Y-44251
X42083Y-20881
X42127Y-22508
X42230Y-40606
X42280Y-52969
X42289Y-12710
X42341Y-24017
X42437Y-21121
X42476Y-24319
X43009Y-40081
X43696Y-45035
X43917Y-23426
X44128Y-40277
X44847Y-28458
X44945Y-40873
X45139Y-41185
X45186Y-30394
X45198Y-10628
X45205Y-29201
X45435Y-9844
X45502Y-15059
X45565Y-19913
X45577Y-44642
X45653Y-35892
X45659Y-16645
X45859Y-34783
X45953Y-35696
X46015Y-57879
X46064Y-23297
X46525Y-50972
X46633Y-45160
X46803Y-31102
X46805Y-49782
X46811Y-21819
X46871Y-31864
X46983Y-36109
X47002Y-52175
X47055Y-35602
X47055Y-36991
X47248Y-33104
X47254Y-26059
X47445Y-21921
X47557Y-25261
X47613Y-38645
X47667Y-41975
X47687Y-38306
X47843Y-12088
X48001Y-23283
X48041Y-57037
X48041Y-12803
X48051Y-25587
X48096Y-57418
X48333Y-54437
X48354Y-54176
X48679Y-49143
X48689Y-35008
X48780Y-42054
X48921Y-52800
X48971Y-28476
X49102Y-45594
X49177Y-35256
X49199Y-28787
X49399Y-44084
X49482Y-32495
X49584Y-45290
X49697Y-24312
X49734Y-27011
X49768Y-34231
X49782Y-25827
X49809Y-28946
X49816Y-38263
X49816Y-34749
X49821Y-39150
X49937Y-20994
X50046Y-32024
X50169Y-33348
X50218Y-25445
X50293Y-19178
X50845Y-49146
X50846Y-34041
X51099Y-50469
X51129Y-16528
X51202Y-21938
X51242Y-35794
X51355Y-17208
X51434Y-46339
X51535Y-43075
X52039Y-41111
X52174Y-35618
X52297Y-39243
X52359Y-48275
X52659Y-36893
X52668Y-36299
X52687Y-47052
X52688Y-46150
X52746Y-18498
X53165Y-10819
X53238Y-58511
X53663Y-25056
X53743Y-48275
X53802Y-19882
X53876Y-58330
X53997Y-22480
X54092Y-43773
X54131Y-27992
X54254Y-56584
X54255Y-35761
X54297Y-34140
X54309Y-24979
X54426Y-44110
X54548Y-27795
X54550Y-27094
X54604Y-56949
X54644Y-58085
X54646Y-54430
X54699Y-29451
X54860Y-23121
X54932Y-35986
X54968Y-50161
X54996Y-55677
X55121Y-48311
X55212Y-56916
X55393Y-21551
X55628Y-18254
X55672Y-26711
X55681Y-39076
X55744Y-57972
X55757Y-51765
X55807Y-58304
X55905Y-56315
X55921Y-57782
X56182Y-57288
X56292Y-56450
X56341Y-57024
X56769Y-22685
X56772Y-23919
X56859Y-59127
X56975Y-25004
X56978Y-50220
X57006Y-52853
X57049Y-47431
X57053Y-38691
X57296Y-31458
X57430Y-34059
X57594Y-30780
X57628Y-33866
X57670Y-38072
X58141Y-59131
X58528Y-53153
X58828Y-27765
X58866Y-31698
X58883Y-24071
X58943Y-38657
X59002Y-45612
X59121Y-19236
X59268Y-45767
X59601Y-55183
X59746Y-27286
X59924Y-16278
X60044Y-24554
X60071Y-57250
X60159Y-40864
X60162Y-23112
X60169Y-20711
X60209Y-35742
X60328Y-56984
X60331Y-57246
X60332Y-45378
X60424Y-44674
X60531Y-51370
X60969Y-15655
X61204Y-37006
X61707Y-39027
X61725Y-24579
X61835Y-55977
X61897Y-42036
X61907Y-26061
X61995Y-56298
X62000Y-56823
X62033Y-42872
X62124Y-37428
X62144Y-52294
X62213Y-38827
X62342Y-54288
X62388Y-38038
X62590Y-51789
X62854Y-56501
X62946Y-48339
X63013Y-53226
X63040Y-24403
X63059Y-14320
X63156Y-23860
X63713Y-33898
X64037Y-34451
X64037Y-35122
X64041Y-20716
X64321Y-50744
X64324Y-48744
X64354Y-26799
X64405Y-57399
X64458Y-16637
X64592Y-57586
X64706Y-25578
X64932Y-43563
X65009Y-34960
X65017Y-39810
X65124Y-48501
X65269Y-26439
X65315Y-53467
X65319Y-45491
X65505Y-38790
X65547Y-44453
X65591Y-59122
X65610Y-43565
X65663Y-54763
X65960Y-15703
X66197Y-25489
X66619Y-13500
X66667Y-27609
X66888Y-53728
X66980Y-26903
X67017Y-52346
X67414Y-55174
X67416Y-48083
X67501Y-41040
X67713Y-24963
X67842Y-10864
X68083Y-50744
X68164Y-45450
X68203Y-52339
X68283Y-41920
X68571Y-25835
X68750Y-58335
X68822Y-45570
X68900Y-56218
X69210Y-35187
X69265Y-35885
X69334Y-51868
X69364Y-51149
X69538Y-36124
X69577Y-32867
X69664Y-44608
X69669Y-55962
X69696Y-37859
X69704Y-50703
X69753Y-56324
X69779Y-39043
X69794Y-50166
X69854Y-9569
X69890Y-51607
X70027Y-25410
X70136Y-58340
X70151Y-38265
X70152Y-23738
X70194Y-47781
X70205Y-56564
X70230Y-53126
X70273Y-25072
X70302Y-44099
X70500Y-48448
X70516Y-50061
X70581Y-46518
X70656Y-52796
X70781Y-52376
X70796Y-56974
X70840Y-45168
X70866Y-55274
X71041Y-55000
X71076Y-57415
X71101Y-58324
X71102Y-56133
X71134Y-18749
X71285Y-16540
X71343Y-25553
X71988Y-9397
X72107Y-24664
X72112Y-44207
X72236Y-26040
X72241Y-53809
X72402Y-48137
X72485Y-35768
X72582Y-47754
X72608Y-23658
X72662Y-44788
X72716Y-25567
X72793Y-53057
X72908Y-28352
X72908Y-28714
X72953Y-56133
X72966Y-41472
X72969Y-52728
X73014Y-22853
X73040Y-40080
X73047Y-45296
X73055Y-48407
X73397Y-34592
X73669Y-58335
X73854Y-53209
X73905Y-34331
X73988Y-40724
X74018Y-42076
X74041Y-54669
X74067Y-46546
X74313Y-46732
X74373Y-29719
X74409Y-47192
X74462Y-42296
X74856Y-35098
X74924Y-47744
X74945Y-46367
X75013Y-24089
X75047Y-42602
X75074Y-47178
X75203Y-46484
X75279Y-29512
X75390Y-56974
X75399Y-25493
X75500Y-20268
X75528Y-33898
X75584Y-52090
X75773Y-24388
X75807Y-43605
X75846Y-45800
X75937Y-32657
X76298Y-30823
X76342Y-26216
X76837Y-57855
X76867Y-22617
X76871Y-45044
X76892Y-31928
X76982Y-58774
X76999Y-40538
X77252Y-44394
X77827Y-54640
X78152Y-54178
X78165Y-59121
X78179Y-36591
X78253Y-21052
X78318Y-57415
X78432Y-34238
X78793Y-22439
X79416Y-22790
X79656Y-32304
X79668Y-34152
X79693Y-22807
X79766Y-27618
X79967Y-52064
X79978Y-51785
X79984Y-26819
X80053Y-35424
X80101Y-41695
X80114Y-39115
X80240Y-27931
X80396Y-40179
X80503Y-27465
X80625Y-59126
X80854Y-51585
X80906Y-57555
X80909Y-57822
X81130Y-27621
X81248Y-20139
X81555Y-48843
X81564Y-56564
X82135Y-43314
X82188Y-20649
X82357Y-37839
X82404Y-34366
X82555Y-45988
X82589Y-34634
X82775Y-18014
X82796Y-37627
X82844Y-11486
X82871Y-22134
X83473Y-48955
X83480Y-10830
X83669Y-40631
X83787Y-36023
X83920Y-42766
X84052Y-47787
X84658Y-12879
X84760Y-53726
X84787Y-49401
X84890Y-32796
X85368Y-42974
X85552Y-16518
X85995Y-50614
X86561Y-42361
X86608Y-38071
X86741Y-41164
X86771Y-27655
X86996Y-39739
X87291Y-44520
X87421Y-53840
X87724Y-30831
X87964Y-52776
X88030Y-38593
X88062Y-49874
X88350Y-52535
X88831Y-36838
X88917Y-31861
X89774Y-37910
X89962Y-54308
X89970Y-51673
X90032Y-51276
X90360Y-46414
X90362Y-28670
X90700Y-45222
X90733Y-45624
X90880Y-47597
X91426Y-44224
X91503Y-48055
X91977Y-45073
X92000Y-18100
X92024Y-38604
X92641Y-38794
X92973Y-48562
X93293Y-29419
X93572Y-35253
X94044Y-19532
X94251Y-40619
X95631Y-17075
X97414Y-48713
X98713Y-42903
X98716Y-46229
X101000Y-48253
T2
X26299Y-39732
X26299Y-41732
X26299Y-45795
X26299Y-47795
X31654Y-37370
X31654Y-39370
X31654Y-42047
X31654Y-44047
X43642Y-20866
X45642Y-20866
X47343Y-15795
X47343Y-17795
X82913Y-10236
X82913Y-12236
X83268Y-17291
X83268Y-19291
X83780Y-10236
X83780Y-12236
X84646Y-10236
X84646Y-12236
X85512Y-10236
X85512Y-12236
X86378Y-10236
X86378Y-12236
X87008Y-17291
X87008Y-19291
X87244Y-10236
X87244Y-12236
X88386Y-21555
X88386Y-23555
T3
X19382Y-15445
X19882Y-14945
X19882Y-15945
X84925Y-14862
X85425Y-14362
X85925Y-14862
T4
X6941Y-20571
X6941Y-21571
X6941Y-22571
X6941Y-23571
X6941Y-24571
X6941Y-25571
X6941Y-26571
X9402Y-17618
X9941Y-20571
X9941Y-21571
X9941Y-22571
X9941Y-23571
X9941Y-24571
X9941Y-25571
X9941Y-26571
X11559Y-20594
X11559Y-21594
X11559Y-22594
X11559Y-23594
X11559Y-24594
X11559Y-25594
X11559Y-26594
X11559Y-27594
X11559Y-28594
X11559Y-29594
X11559Y-30594
X11559Y-31594
X12402Y-17618
X14862Y-14665
X14862Y-16634
X16339Y-51378
X16339Y-53346
X16339Y-55709
X16339Y-56693
X17559Y-20594
X17559Y-21594
X17559Y-22594
X17559Y-23594
X17559Y-24594
X17559Y-25594
X17559Y-26594
X17559Y-27594
X17559Y-28594
X17559Y-29594
X17559Y-30594
X17559Y-31594
X18898Y-52822
X18898Y-53609
X19197Y-21654
X19197Y-22654
X19197Y-23654
X19197Y-24654
X19197Y-25654
X19197Y-26654
X19197Y-27654
X19197Y-28654
X19197Y-29654
X19197Y-30654
X19197Y-31654
X19197Y-32654
X19197Y-33654
X19197Y-34654
X19783Y-17815
X19783Y-18799
X20709Y-48228
X20709Y-50197
X21791Y-10236
X21791Y-11236
X21791Y-12236
X21791Y-13236
X21791Y-14236
X21791Y-15236
X21791Y-16236
X21791Y-17236
X21791Y-18236
X21791Y-19236
X22118Y-39055
X22118Y-40055
X22118Y-41055
X22118Y-42055
X22118Y-43055
X22118Y-44055
X22118Y-45055
X22118Y-46055
X22118Y-48331
X22118Y-49331
X22118Y-50331
X22118Y-51331
X22118Y-52331
X22118Y-53331
X22118Y-54331
X24791Y-10236
X24791Y-11236
X24791Y-12236
X24791Y-13236
X24791Y-14236
X24791Y-15236
X24791Y-16236
X24791Y-17236
X24791Y-18236
X24791Y-19236
X25118Y-39055
X25118Y-40055
X25118Y-41055
X25118Y-42055
X25118Y-43055
X25118Y-44055
X25118Y-45055
X25118Y-46055
X25118Y-48331
X25118Y-49331
X25118Y-50331
X25118Y-51331
X25118Y-52331
X25118Y-53331
X25118Y-54331
X25197Y-21654
X25197Y-22654
X25197Y-23654
X25197Y-24654
X25197Y-25654
X25197Y-26654
X25197Y-27654
X25197Y-28654
X25197Y-29654
X25197Y-30654
X25197Y-31654
X25197Y-32654
X25197Y-33654
X25197Y-34654
X25972Y-10236
X25972Y-12205
X26378Y-21654
X26378Y-23622
X26378Y-27559
X26378Y-29528
X26378Y-32480
X26378Y-34449
X27106Y-10236
X27106Y-11236
X27106Y-12236
X27106Y-13236
X27106Y-14236
X27106Y-15236
X27106Y-16236
X27106Y-17236
X27106Y-18236
X27106Y-19236
X27394Y-43528
X27394Y-44528
X27394Y-45528
X27394Y-46528
X27394Y-47528
X27394Y-48528
X27394Y-49528
X27512Y-21654
X27512Y-22654
X27512Y-23654
X27512Y-24654
X27512Y-25654
X27512Y-26654
X27512Y-27654
X27512Y-28654
X27512Y-29654
X27512Y-30654
X27512Y-32480
X27512Y-33480
X27512Y-34480
X27512Y-35480
X27512Y-36480
X27512Y-37480
X27512Y-38480
X27512Y-39480
X27512Y-40480
X27512Y-41480
X30106Y-10236
X30106Y-11236
X30106Y-12236
X30106Y-13236
X30106Y-14236
X30106Y-15236
X30106Y-16236
X30106Y-17236
X30106Y-18236
X30106Y-19236
X30394Y-43528
X30394Y-44528
X30394Y-45528
X30394Y-46528
X30394Y-47528
X30394Y-48528
X30394Y-49528
X30472Y-51732
X30472Y-53701
X30512Y-21654
X30512Y-22654
X30512Y-23654
X30512Y-24654
X30512Y-25654
X30512Y-26654
X30512Y-27654
X30512Y-28654
X30512Y-29654
X30512Y-30654
X30512Y-32480
X30512Y-33480
X30512Y-34480
X30512Y-35480
X30512Y-36480
X30512Y-37480
X30512Y-38480
X30512Y-39480
X30512Y-40480
X30512Y-41480
X31280Y-10236
X31280Y-12205
X31654Y-30472
X31654Y-32441
X32039Y-50394
X32039Y-51394
X32039Y-52394
X32039Y-53394
X32039Y-54394
X32039Y-55394
X32039Y-56394
X32461Y-10236
X32461Y-11236
X32461Y-12236
X32461Y-13236
X32461Y-14236
X32461Y-15236
X32461Y-16236
X32461Y-17236
X32780Y-24606
X32780Y-25606
X32780Y-26606
X32780Y-27606
X32780Y-28606
X32780Y-29606
X32780Y-30606
X32780Y-31606
X32780Y-32606
X32780Y-33606
X32780Y-34606
X32780Y-35606
X32780Y-36606
X32780Y-37606
X32780Y-38606
X32780Y-39606
X32780Y-40606
X32780Y-41606
X32780Y-42606
X32780Y-43606
X35039Y-50394
X35039Y-51394
X35039Y-52394
X35039Y-53394
X35039Y-54394
X35039Y-55394
X35039Y-56394
X35461Y-10236
X35461Y-11236
X35461Y-12236
X35461Y-13236
X35461Y-14236
X35461Y-15236
X35461Y-16236
X35461Y-17236
X36634Y-10236
X36634Y-12205
X36693Y-48425
X36693Y-49425
X36693Y-50425
X36693Y-51425
X36693Y-52425
X36693Y-53425
X36693Y-54425
X36693Y-55425
X36693Y-56425
X37815Y-10236
X37815Y-11236
X37815Y-12236
X37815Y-13236
X37815Y-14236
X37815Y-15236
X37815Y-16236
X37815Y-17236
X38339Y-47496
X38339Y-48496
X38339Y-49496
X38339Y-50496
X38339Y-51496
X38339Y-52496
X38339Y-53496
X38339Y-54496
X38339Y-55496
X38339Y-56496
X38780Y-24606
X38780Y-25606
X38780Y-26606
X38780Y-27606
X38780Y-28606
X38780Y-29606
X38780Y-30606
X38780Y-31606
X38780Y-32606
X38780Y-33606
X38780Y-34606
X38780Y-35606
X38780Y-36606
X38780Y-37606
X38780Y-38606
X38780Y-39606
X38780Y-40606
X38780Y-41606
X38780Y-42606
X38780Y-43606
X38878Y-19882
X38878Y-21811
X40457Y-24606
X40457Y-25606
X40457Y-26606
X40457Y-27606
X40457Y-28606
X40457Y-29606
X40457Y-30606
X40457Y-31606
X40457Y-32606
X40457Y-33606
X40457Y-34606
X40457Y-35606
X40457Y-36606
X40457Y-37606
X40457Y-38606
X40457Y-39606
X40457Y-40606
X40457Y-41606
X40457Y-42606
X40457Y-43606
X40815Y-10236
X40815Y-11236
X40815Y-12236
X40815Y-13236
X40815Y-14236
X40815Y-15236
X40815Y-16236
X40815Y-17236
X40846Y-19882
X40846Y-21850
X41339Y-47496
X41339Y-48496
X41339Y-49496
X41339Y-50496
X41339Y-51496
X41339Y-52496
X41339Y-53496
X41339Y-54496
X41339Y-55496
X41339Y-56496
X41988Y-10236
X41988Y-12205
X42827Y-45512
X42827Y-46512
X42827Y-47512
X42827Y-48512
X42827Y-49512
X42827Y-50512
X42827Y-51512
X42827Y-52512
X42827Y-53512
X42827Y-54512
X42827Y-55512
X42827Y-56512
X43169Y-10236
X43169Y-11236
X43169Y-12236
X43169Y-13236
X43169Y-14236
X43169Y-15236
X43169Y-16236
X43169Y-17236
X43169Y-18236
X43169Y-19236
X45827Y-45512
X45827Y-46512
X45827Y-47512
X45827Y-48512
X45827Y-49512
X45827Y-50512
X45827Y-51512
X45827Y-52512
X45827Y-53512
X45827Y-54512
X45827Y-55512
X45827Y-56512
X46169Y-10236
X46169Y-11236
X46169Y-12236
X46169Y-13236
X46169Y-14236
X46169Y-15236
X46169Y-16236
X46169Y-17236
X46169Y-18236
X46169Y-19236
X46457Y-24606
X46457Y-25606
X46457Y-26606
X46457Y-27606
X46457Y-28606
X46457Y-29606
X46457Y-30606
X46457Y-31606
X46457Y-32606
X46457Y-33606
X46457Y-34606
X46457Y-35606
X46457Y-36606
X46457Y-37606
X46457Y-38606
X46457Y-39606
X46457Y-40606
X46457Y-41606
X46457Y-42606
X46457Y-43606
X47343Y-10236
X47343Y-12205
X47559Y-46748
X47559Y-47748
X47559Y-48748
X47559Y-49748
X47559Y-50748
X47559Y-51748
X47559Y-52748
X47559Y-53748
X47559Y-54748
X47559Y-55748
X48260Y-27638
X48260Y-28638
X48260Y-29638
X48260Y-30638
X48260Y-31638
X48260Y-32638
X48260Y-33638
X48260Y-34638
X48260Y-36614
X48260Y-37614
X48260Y-38614
X48260Y-39614
X48260Y-40614
X48260Y-41614
X48260Y-42614
X48260Y-43614
X48575Y-10236
X48575Y-11236
X48575Y-12236
X48575Y-13236
X48575Y-14236
X48575Y-15236
X48575Y-16236
X48575Y-18583
X48575Y-19583
X48575Y-20583
X48575Y-21583
X48575Y-22583
X48575Y-23583
X48575Y-24583
X48575Y-25583
X50559Y-46748
X50559Y-47748
X50559Y-48748
X50559Y-49748
X50559Y-50748
X50559Y-51748
X50559Y-52748
X50559Y-53748
X50559Y-54748
X50559Y-55748
X51260Y-27638
X51260Y-28638
X51260Y-29638
X51260Y-30638
X51260Y-31638
X51260Y-32638
X51260Y-33638
X51260Y-34638
X51260Y-36614
X51260Y-37614
X51260Y-38614
X51260Y-39614
X51260Y-40614
X51260Y-41614
X51260Y-42614
X51260Y-43614
X51575Y-10236
X51575Y-11236
X51575Y-12236
X51575Y-13236
X51575Y-14236
X51575Y-15236
X51575Y-16236
X51575Y-18583
X51575Y-19583
X51575Y-20583
X51575Y-21583
X51575Y-22583
X51575Y-23583
X51575Y-24583
X51575Y-25583
X53102Y-13882
X53102Y-14882
X53102Y-15882
X53102Y-16882
X53102Y-17882
X53102Y-18882
X53102Y-19882
X53102Y-20882
X53102Y-21882
X53102Y-22882
X53102Y-23882
X53102Y-24882
X53110Y-10236
X53110Y-12205
X53150Y-27323
X53150Y-28323
X53150Y-29323
X53150Y-30323
X53150Y-31323
X53150Y-32323
X53150Y-33323
X53150Y-35433
X53150Y-36433
X53150Y-37433
X53150Y-38433
X53150Y-39433
X53150Y-40433
X53150Y-41433
X53150Y-42433
X53150Y-43433
X53150Y-44433
X53457Y-46748
X53457Y-47748
X53457Y-48748
X53457Y-49748
X53457Y-50748
X53457Y-51748
X53457Y-52748
X53457Y-53748
X53457Y-54748
X53457Y-55748
X56102Y-10236
X56102Y-12205
X56102Y-13882
X56102Y-14882
X56102Y-15882
X56102Y-16882
X56102Y-17882
X56102Y-18882
X56102Y-19882
X56102Y-20882
X56102Y-21882
X56102Y-22882
X56102Y-23882
X56102Y-24882
X56150Y-27323
X56150Y-28323
X56150Y-29323
X56150Y-30323
X56150Y-31323
X56150Y-32323
X56150Y-33323
X56150Y-35433
X56150Y-36433
X56150Y-37433
X56150Y-38433
X56150Y-39433
X56150Y-40433
X56150Y-41433
X56150Y-42433
X56150Y-43433
X56150Y-44433
X56457Y-46748
X56457Y-47748
X56457Y-48748
X56457Y-49748
X56457Y-50748
X56457Y-51748
X56457Y-52748
X56457Y-53748
X56457Y-54748
X56457Y-55748
X57293Y-27368
X57293Y-29337
X57293Y-35433
X57293Y-37402
X57874Y-10236
X57874Y-11236
X57874Y-12236
X57874Y-13236
X57874Y-14236
X57874Y-15236
X57874Y-16236
X57874Y-17236
X57874Y-18236
X57874Y-19236
X57874Y-20236
X57874Y-21236
X57874Y-22236
X57874Y-23236
X58110Y-46748
X58110Y-47748
X58110Y-48748
X58110Y-49748
X58110Y-50748
X58110Y-51748
X58110Y-52748
X58110Y-53748
X58110Y-54748
X58110Y-55748
X58445Y-35443
X58445Y-36443
X58445Y-37443
X58445Y-38443
X58445Y-39443
X58445Y-40443
X58445Y-41443
X58445Y-42443
X58445Y-43443
X58445Y-44443
X58465Y-26323
X58465Y-27323
X58465Y-28323
X58465Y-29323
X58465Y-30323
X58465Y-31323
X58465Y-32323
X58465Y-33323
X61110Y-46748
X61110Y-47748
X61110Y-48748
X61110Y-49748
X61110Y-50748
X61110Y-51748
X61110Y-52748
X61110Y-53748
X61110Y-54748
X61110Y-55748
X61445Y-35443
X61445Y-36443
X61445Y-37443
X61445Y-38443
X61445Y-39443
X61445Y-40443
X61445Y-41443
X61445Y-42443
X61445Y-43443
X61445Y-44443
X61465Y-26323
X61465Y-27323
X61465Y-28323
X61465Y-29323
X61465Y-30323
X61465Y-31323
X61465Y-32323
X61465Y-33323
X62213Y-46768
X62213Y-48736
X63287Y-27037
X63287Y-28037
X63287Y-29037
X63287Y-30037
X63287Y-31037
X63287Y-32037
X63287Y-33037
X63307Y-35453
X63307Y-36453
X63307Y-37453
X63307Y-38453
X63307Y-39453
X63307Y-40453
X63307Y-41453
X63307Y-42453
X63307Y-43453
X63307Y-44453
X63346Y-46744
X63346Y-47744
X63346Y-48744
X63346Y-49744
X63346Y-50744
X63346Y-51744
X63346Y-52744
X63346Y-53744
X63346Y-54744
X63346Y-55744
X63874Y-10236
X63874Y-11236
X63874Y-12236
X63874Y-13236
X63874Y-14236
X63874Y-15236
X63874Y-16236
X63874Y-17236
X63874Y-18236
X63874Y-19236
X63874Y-20236
X63874Y-21236
X63874Y-22236
X63874Y-23236
X65748Y-10236
X65748Y-11236
X65748Y-12236
X65748Y-13236
X65748Y-14236
X65748Y-15236
X65748Y-16236
X65748Y-17236
X65748Y-18236
X65748Y-19236
X65748Y-20236
X65748Y-21236
X65748Y-22236
X65748Y-23236
X66287Y-27037
X66287Y-28037
X66287Y-29037
X66287Y-30037
X66287Y-31037
X66287Y-32037
X66287Y-33037
X66307Y-35453
X66307Y-36453
X66307Y-37453
X66307Y-38453
X66307Y-39453
X66307Y-40453
X66307Y-41453
X66307Y-42453
X66307Y-43453
X66307Y-44453
X66346Y-46744
X66346Y-47744
X66346Y-48744
X66346Y-49744
X66346Y-50744
X66346Y-51744
X66346Y-52744
X66346Y-53744
X66346Y-54744
X66346Y-55744
X67431Y-27417
X67431Y-29386
X67431Y-35453
X67431Y-37421
X67459Y-46758
X67459Y-48726
X68585Y-27352
X68585Y-28352
X68585Y-29352
X68585Y-30352
X68585Y-31352
X68585Y-32352
X68585Y-33352
X68585Y-35472
X68585Y-36472
X68585Y-37472
X68585Y-38472
X68585Y-39472
X68585Y-40472
X68585Y-41472
X68585Y-42472
X68585Y-43472
X68585Y-44472
X68593Y-46728
X68593Y-47728
X68593Y-48728
X68593Y-49728
X68593Y-50728
X68593Y-51728
X68593Y-52728
X68593Y-53728
X68593Y-54728
X68593Y-55728
X71585Y-27352
X71585Y-28352
X71585Y-29352
X71585Y-30352
X71585Y-31352
X71585Y-32352
X71585Y-33352
X71585Y-35472
X71585Y-36472
X71585Y-37472
X71585Y-38472
X71585Y-39472
X71585Y-40472
X71585Y-41472
X71585Y-42472
X71585Y-43472
X71585Y-44472
X71593Y-46728
X71593Y-47728
X71593Y-48728
X71593Y-49728
X71593Y-50728
X71593Y-51728
X71593Y-52728
X71593Y-53728
X71593Y-54728
X71593Y-55728
X71748Y-10236
X71748Y-11236
X71748Y-12236
X71748Y-13236
X71748Y-14236
X71748Y-15236
X71748Y-16236
X71748Y-17236
X71748Y-18236
X71748Y-19236
X71748Y-20236
X71748Y-21236
X71748Y-22236
X71748Y-23236
X73457Y-27323
X73457Y-28323
X73457Y-29323
X73457Y-30323
X73457Y-31323
X73457Y-32323
X73457Y-33323
X73457Y-35433
X73457Y-36433
X73457Y-37433
X73457Y-38433
X73457Y-39433
X73457Y-40433
X73457Y-41433
X73457Y-42433
X73457Y-43433
X73457Y-44433
X73465Y-46744
X73465Y-47744
X73465Y-48744
X73465Y-49744
X73465Y-50744
X73465Y-51744
X73465Y-52744
X73465Y-53744
X73465Y-54744
X73465Y-55744
X73772Y-10236
X73772Y-11236
X73772Y-12236
X73772Y-13236
X73772Y-14236
X73772Y-15236
X73772Y-16236
X73772Y-18094
X73772Y-19094
X73772Y-20094
X73772Y-21094
X73772Y-22094
X73772Y-23094
X73772Y-24094
X73772Y-25094
X76457Y-27323
X76457Y-28323
X76457Y-29323
X76457Y-30323
X76457Y-31323
X76457Y-32323
X76457Y-33323
X76457Y-35433
X76457Y-36433
X76457Y-37433
X76457Y-38433
X76457Y-39433
X76457Y-40433
X76457Y-41433
X76457Y-42433
X76457Y-43433
X76457Y-44433
X76465Y-46744
X76465Y-47744
X76465Y-48744
X76465Y-49744
X76465Y-50744
X76465Y-51744
X76465Y-52744
X76465Y-53744
X76465Y-54744
X76465Y-55744
X76772Y-10236
X76772Y-11236
X76772Y-12236
X76772Y-13236
X76772Y-14236
X76772Y-15236
X76772Y-16236
X76772Y-18094
X76772Y-19094
X76772Y-20094
X76772Y-21094
X76772Y-22094
X76772Y-23094
X76772Y-24094
X76772Y-25094
X77587Y-45803
X77587Y-47772
X77598Y-27667
X77598Y-29636
X77608Y-35433
X77608Y-37402
X78583Y-49748
X78583Y-50748
X78583Y-51748
X78583Y-52748
X78583Y-53748
X78583Y-54748
X78583Y-55748
X78693Y-10236
X78693Y-11236
X78693Y-12236
X78693Y-13236
X78693Y-14236
X78693Y-15236
X78693Y-16236
X78693Y-17236
X78693Y-38559
X78693Y-39559
X78693Y-40559
X78693Y-41559
X78693Y-42559
X78693Y-43559
X78693Y-44559
X78693Y-45559
X78693Y-46559
X78693Y-47559
X78732Y-18953
X78732Y-19953
X78732Y-20953
X78732Y-21953
X78732Y-22953
X78732Y-23953
X78732Y-24953
X78732Y-25953
X78732Y-26953
X78732Y-27953
X78740Y-30614
X78740Y-31614
X78740Y-32614
X78740Y-33614
X78740Y-34614
X78740Y-35614
X78740Y-36614
X81583Y-49748
X81583Y-50748
X81583Y-51748
X81583Y-52748
X81583Y-53748
X81583Y-54748
X81583Y-55748
X81693Y-10236
X81693Y-11236
X81693Y-12236
X81693Y-13236
X81693Y-14236
X81693Y-15236
X81693Y-16236
X81693Y-17236
X81693Y-38559
X81693Y-39559
X81693Y-40559
X81693Y-41559
X81693Y-42559
X81693Y-43559
X81693Y-44559
X81693Y-45559
X81693Y-46559
X81693Y-47559
X81732Y-18953
X81732Y-19953
X81732Y-20953
X81732Y-21953
X81732Y-22953
X81732Y-23953
X81732Y-24953
X81732Y-25953
X81732Y-26953
X81732Y-27953
X81740Y-30614
X81740Y-31614
X81740Y-32614
X81740Y-33614
X81740Y-34614
X81740Y-35614
X81740Y-36614
X82756Y-52795
X82756Y-54764
X83937Y-49748
X83937Y-50748
X83937Y-51748
X83937Y-52748
X83937Y-53748
X83937Y-54748
X83937Y-55748
X84008Y-29449
X84008Y-30449
X84008Y-31449
X84008Y-32449
X84008Y-33449
X84008Y-34449
X84008Y-35449
X84252Y-21555
X84252Y-22555
X84252Y-23555
X84252Y-24555
X84252Y-25555
X84252Y-26555
X84252Y-27555
X84331Y-17323
X84331Y-19291
X84402Y-38008
X84402Y-39008
X84402Y-40008
X84402Y-41008
X84402Y-42008
X84402Y-43008
X84402Y-44008
X84402Y-45008
X84402Y-46008
X84402Y-47008
X86937Y-49748
X86937Y-50748
X86937Y-51748
X86937Y-52748
X86937Y-53748
X86937Y-54748
X86937Y-55748
X87008Y-29449
X87008Y-30449
X87008Y-31449
X87008Y-32449
X87008Y-33449
X87008Y-34449
X87008Y-35449
X87252Y-21555
X87252Y-22555
X87252Y-23555
X87252Y-24555
X87252Y-25555
X87252Y-26555
X87252Y-27555
X87402Y-38008
X87402Y-39008
X87402Y-40008
X87402Y-41008
X87402Y-42008
X87402Y-43008
X87402Y-44008
X87402Y-45008
X87402Y-46008
X87402Y-47008
X88110Y-49213
X88110Y-51181
X88346Y-29433
X88346Y-30433
X88346Y-31433
X88346Y-32433
X88346Y-33433
X88346Y-34433
X88346Y-35433
X88346Y-36433
X88496Y-10291
X88496Y-11291
X88496Y-12291
X88496Y-13291
X88496Y-14291
X88496Y-15291
X88496Y-16291
X88496Y-17291
X88496Y-18291
X88496Y-19291
X88504Y-37795
X88504Y-39764
X89283Y-49748
X89283Y-50748
X89283Y-51748
X89283Y-52748
X89283Y-53748
X89283Y-54748
X89283Y-55748
X89528Y-21063
X89528Y-22063
X89528Y-23063
X89528Y-24063
X89528Y-25063
X89528Y-26063
X89528Y-27063
X89528Y-28063
X89618Y-39665
X89618Y-40665
X89618Y-41665
X89618Y-42665
X89618Y-43665
X89618Y-44665
X89618Y-45665
X89618Y-46665
X89638Y-29870
X89638Y-30870
X89638Y-31870
X89638Y-32870
X89638Y-33870
X89638Y-34870
X89638Y-35870
X89638Y-36870
X91496Y-10291
X91496Y-11291
X91496Y-12291
X91496Y-13291
X91496Y-14291
X91496Y-15291
X91496Y-16291
X91496Y-17291
X91496Y-18291
X91496Y-19291
X92283Y-49748
X92283Y-50748
X92283Y-51748
X92283Y-52748
X92283Y-53748
X92283Y-54748
X92283Y-55748
X92528Y-21063
X92528Y-22063
X92528Y-23063
X92528Y-24063
X92528Y-25063
X92528Y-26063
X92528Y-27063
X92528Y-28063
X92618Y-39665
X92618Y-40665
X92618Y-41665
X92618Y-42665
X92618Y-43665
X92618Y-44665
X92618Y-45665
X92618Y-46665
X92638Y-29870
X92638Y-30870
X92638Y-31870
X92638Y-32870
X92638Y-33870
X92638Y-34870
X92638Y-35870
X92638Y-36870
X93465Y-49360
X93465Y-51329
X93701Y-21063
X93701Y-23031
X93701Y-26693
X93701Y-28661
X93750Y-38691
X93750Y-40659
X94717Y-49748
X94717Y-50748
X94717Y-51748
X94717Y-52748
X94717Y-53748
X94717Y-54748
X94717Y-55748
X94874Y-23189
X94874Y-24189
X94874Y-25189
X94874Y-26189
X94874Y-27189
X94874Y-28189
X94874Y-29189
X94874Y-30850
X94874Y-31850
X94874Y-32850
X94874Y-33850
X94874Y-34850
X94874Y-35850
X94874Y-36850
X94874Y-38661
X94874Y-39661
X94874Y-40661
X94874Y-41661
X94874Y-42661
X94874Y-43661
X94874Y-44661
X94874Y-45661
X94874Y-46661
X94874Y-47661
X95504Y-14575
X95504Y-15575
X95504Y-16575
X95504Y-17575
X95504Y-18575
X95504Y-19575
X95504Y-20575
X95504Y-21575
X97717Y-49748
X97717Y-50748
X97717Y-51748
X97717Y-52748
X97717Y-53748
X97717Y-54748
X97717Y-55748
X97874Y-23189
X97874Y-24189
X97874Y-25189
X97874Y-26189
X97874Y-27189
X97874Y-28189
X97874Y-29189
X97874Y-30850
X97874Y-31850
X97874Y-32850
X97874Y-33850
X97874Y-34850
X97874Y-35850
X97874Y-36850
X97874Y-38661
X97874Y-39661
X97874Y-40661
X97874Y-41661
X97874Y-42661
X97874Y-43661
X97874Y-44661
X97874Y-45661
X97874Y-46661
X97874Y-47661
X98504Y-14575
X98504Y-15575
X98504Y-16575
X98504Y-17575
X98504Y-18575
X98504Y-19575
X98504Y-20575
X98504Y-21575
X98976Y-49360
X98976Y-51329
X99035Y-23209
X99035Y-25177
X99035Y-38671
X99035Y-40640
X99055Y-30827
X99055Y-32795
X100228Y-15575
X100228Y-16575
X100228Y-17575
X100228Y-18575
X100228Y-19575
X100228Y-20575
X100228Y-21575
X100228Y-23173
X100228Y-24173
X100228Y-25173
X100228Y-26173
X100228Y-27173
X100228Y-28173
X100228Y-29173
X100228Y-38638
X100228Y-39638
X100228Y-40638
X100228Y-41638
X100228Y-42638
X100228Y-43638
X100228Y-44638
X100228Y-45638
X100228Y-46638
X100228Y-47638
X100228Y-49748
X100228Y-50748
X100228Y-51748
X100228Y-52748
X100228Y-53748
X100228Y-54748
X100228Y-55748
X100236Y-30850
X100236Y-31850
X100236Y-32850
X100236Y-33850
X100236Y-34850
X100236Y-35850
X100236Y-36850
X103228Y-15575
X103228Y-16575
X103228Y-17575
X103228Y-18575
X103228Y-19575
X103228Y-20575
X103228Y-21575
X103228Y-23173
X103228Y-24173
X103228Y-25173
X103228Y-26173
X103228Y-27173
X103228Y-28173
X103228Y-29173
X103228Y-38638
X103228Y-39638
X103228Y-40638
X103228Y-41638
X103228Y-42638
X103228Y-43638
X103228Y-44638
X103228Y-45638
X103228Y-46638
X103228Y-47638
X103228Y-49748
X103228Y-50748
X103228Y-51748
X103228Y-52748
X103228Y-53748
X103228Y-54748
X103228Y-55748
X103236Y-30850
X103236Y-31850
X103236Y-32850
X103236Y-33850
X103236Y-34850
X103236Y-35850
X103236Y-36850
T5
X9961Y-28236
X9961Y-29236
X9961Y-30236
X12189Y-10728
X13189Y-10728
X14921Y-12835
X15921Y-10728
X15921Y-12835
X16921Y-10728
X16921Y-12835
X17921Y-10728
X17921Y-12835
X18921Y-10728
X18921Y-12835
X19252Y-37717
X19252Y-38717
X19921Y-10728
X19921Y-12835
X20622Y-56299
X20709Y-37717
X20709Y-38717
X20709Y-40197
X20709Y-41197
X21622Y-56299
X22228Y-36220
X22622Y-56299
X23228Y-36220
X23622Y-56299
X24622Y-56299
X25622Y-56299
X26622Y-56299
X27087Y-51701
X27087Y-52701
X27087Y-53701
X27622Y-56299
X28622Y-56299
X28740Y-51701
X28740Y-52701
X28740Y-53701
X29622Y-56299
X32677Y-48268
X32843Y-45118
X32843Y-46118
X33677Y-48268
X33843Y-45118
X33843Y-46118
X34677Y-48268
X34843Y-45118
X34843Y-46118
X35843Y-45118
X35843Y-46118
X36843Y-45118
X36843Y-46118
X37843Y-45118
X37843Y-46118
X38843Y-45118
X38843Y-46118
X39843Y-45118
X39843Y-46118
X51969Y-45850
X51969Y-46850
X51969Y-47850
X51969Y-48850
X51969Y-49850
X51969Y-50850
X51969Y-51850
X51969Y-52850
X51969Y-53850
X51969Y-54850
X51969Y-55850
X51969Y-56850
X83051Y-38965
X83051Y-39965
X83051Y-40965
X83051Y-41965
X83051Y-42965
X83051Y-43965
X83051Y-44965
X83051Y-45965
X93016Y-14646
X93016Y-15646
X93016Y-16646
X93016Y-17646
X93016Y-18646
X94016Y-14646
X94016Y-15646
X94016Y-16646
X94016Y-17646
X94016Y-18646
X97504Y-57244
X98504Y-57244
T6
X10846Y-43583
X15146Y-43583
T7
X95472Y-11811
T8
X93504Y-11811
X95472Y-10039
X97441Y-11811
T9
X9055Y-12402
X100315Y-11890
T10
X12992Y-36929
X12992Y-48819
T0
M30
