  0
SECTION
  2
HEADER
  9
$ANGBASE
  50
0.0
  9
$ANGDIR
  70
1
  9
$MEASUREMENT
  70
0
  0
ENDSEC
  0
SECTION
  2
TABLES
  0
TABLE
  2
LTYPE
  70
4
  0
LTYPE
  5
40F
  2
CONTINUOUS
  70
0
  3
Solid line
  72
65
  73
0
  40
0.0
  0
LTYPE
  5
410
  2
DASHDOT
 70
0
  3
Dash Dot ____ _ ____ _
 72
65
 73
4
 40
2.0
 49
1.25
 49
-0.25
 49
0.25
 49
-0.25
  0
LTYPE
  5
411
  2
DASHED
 70
0
  3
Dashed __ __ __ __ __
 72
65
 73
2
 40
0.75
 49
0.5
 49
-0.25
  0
LTYPE
  5
43B
  2
DOTTED
 70
0
  3
Dotted .  .  .  .
 72
65
 73
2
 40
0.2
 49
0.0
 49
-0.2
  0
ENDTAB
  0
TABLE
  2
STYLE
  70
4
  0
STYLE
  2
KICAD
  70
0
  40
0
  41
1
  42
1
  50
0
  71
0
  3
isocp.shx
  0
STYLE
  2
KICADB
  70
0
  40
0
  41
1
  42
1
  50
0
  71
0
  3
isocp.shx
  0
STYLE
  2
KICADI
  70
0
  40
0
  41
1
  42
1
  50
15
  71
0
  3
isocp.shx
  0
STYLE
  2
KICADBI
  70
0
  40
0
  41
1
  42
1
  50
15
  71
0
  3
isocp.shx
  0
ENDTAB
  0
TABLE
  2
LAYER
  70
1
  0
LAYER
  2
BLACK
  70
0
  62
7
  6
CONTINUOUS
  0
ENDTAB
  0
ENDSEC
  0
SECTION
  2
ENTITIES
0
LINE
8
BLACK
6
CONTINUOUS
10
0.75
20
-0.9
11
0.5
21
-1.15
0
LINE
8
BLACK
6
CONTINUOUS
10
10.5
20
-5.9
11
8.375
21
-5.9
0
LINE
8
BLACK
6
CONTINUOUS
10
2
20
-6.2
11
2
21
-5.9
0
LINE
8
BLACK
6
CONTINUOUS
10
0.5
20
-1.15
11
0.5
21
-5.9
0
LINE
8
BLACK
6
CONTINUOUS
10
2
20
-5.9
11
0.5
21
-5.9
0
LINE
8
BLACK
6
CONTINUOUS
10
10.5
20
-5.9
11
10.5
21
-1.15
0
LINE
8
BLACK
6
CONTINUOUS
10
10.5
20
-1.15
11
10.25
21
-0.9
0
LINE
8
BLACK
6
CONTINUOUS
10
8.375
20
-5.9
11
8.375
21
-6.2
0
LINE
8
BLACK
6
CONTINUOUS
10
10.25
20
-0.9
11
0.75
21
-0.9
0
LINE
8
BLACK
6
CONTINUOUS
10
8.375
20
-6.2
11
2
21
-6.2
0
LINE
8
BLACK
6
CONTINUOUS
10
0.593925
20
-6.32973
11
0.593925
21
-6.25099
0
LINE
8
BLACK
6
CONTINUOUS
10
0.593925
20
-6.25099
11
0.612672
21
-6.25099
0
LINE
8
BLACK
6
CONTINUOUS
10
0.612672
20
-6.25099
11
0.623921
21
-6.25474
0
LINE
8
BLACK
6
CONTINUOUS
10
0.623921
20
-6.25474
11
0.63142
21
-6.26224
0
LINE
8
BLACK
6
CONTINUOUS
10
0.63142
20
-6.26224
11
0.63517
21
-6.26974
0
LINE
8
BLACK
6
CONTINUOUS
10
0.63517
20
-6.26974
11
0.638919
21
-6.28474
0
LINE
8
BLACK
6
CONTINUOUS
10
0.638919
20
-6.28474
11
0.638919
21
-6.29599
0
LINE
8
BLACK
6
CONTINUOUS
10
0.638919
20
-6.29599
11
0.63517
21
-6.31099
0
LINE
8
BLACK
6
CONTINUOUS
10
0.63517
20
-6.31099
11
0.63142
21
-6.31849
0
LINE
8
BLACK
6
CONTINUOUS
10
0.63142
20
-6.31849
11
0.623921
21
-6.32599
0
LINE
8
BLACK
6
CONTINUOUS
10
0.623921
20
-6.32599
11
0.612672
21
-6.32973
0
LINE
8
BLACK
6
CONTINUOUS
10
0.612672
20
-6.32973
11
0.593925
21
-6.32973
0
LINE
8
BLACK
6
CONTINUOUS
10
0.672665
20
-6.32973
11
0.672665
21
-6.27724
0
LINE
8
BLACK
6
CONTINUOUS
10
0.672665
20
-6.29224
11
0.676414
21
-6.28474
0
LINE
8
BLACK
6
CONTINUOUS
10
0.676414
20
-6.28474
11
0.680164
21
-6.28099
0
LINE
8
BLACK
6
CONTINUOUS
10
0.680164
20
-6.28099
11
0.687663
21
-6.27724
0
LINE
8
BLACK
6
CONTINUOUS
10
0.687663
20
-6.27724
11
0.695162
21
-6.27724
0
LINE
8
BLACK
6
CONTINUOUS
10
0.721409
20
-6.32973
11
0.721409
21
-6.27724
0
LINE
8
BLACK
6
CONTINUOUS
10
0.721409
20
-6.25099
11
0.717659
21
-6.25474
0
LINE
8
BLACK
6
CONTINUOUS
10
0.717659
20
-6.25474
11
0.721409
21
-6.25849
0
LINE
8
BLACK
6
CONTINUOUS
10
0.721409
20
-6.25849
11
0.725158
21
-6.25474
0
LINE
8
BLACK
6
CONTINUOUS
10
0.725158
20
-6.25474
11
0.721409
21
-6.25099
0
LINE
8
BLACK
6
CONTINUOUS
10
0.721409
20
-6.25099
11
0.721409
21
-6.25849
0
LINE
8
BLACK
6
CONTINUOUS
10
0.770153
20
-6.32973
11
0.762654
21
-6.32599
0
LINE
8
BLACK
6
CONTINUOUS
10
0.762654
20
-6.32599
11
0.758904
21
-6.31849
0
LINE
8
BLACK
6
CONTINUOUS
10
0.758904
20
-6.31849
11
0.758904
21
-6.25099
0
LINE
8
BLACK
6
CONTINUOUS
10
0.811398
20
-6.32973
11
0.803899
21
-6.32599
0
LINE
8
BLACK
6
CONTINUOUS
10
0.803899
20
-6.32599
11
0.800149
21
-6.31849
0
LINE
8
BLACK
6
CONTINUOUS
10
0.800149
20
-6.31849
11
0.800149
21
-6.25099
0
LINE
8
BLACK
6
CONTINUOUS
10
0.901386
20
-6.32973
11
0.901386
21
-6.25099
0
LINE
8
BLACK
6
CONTINUOUS
10
0.901386
20
-6.25099
11
0.927633
21
-6.30724
0
LINE
8
BLACK
6
CONTINUOUS
10
0.927633
20
-6.30724
11
0.95388
21
-6.25099
0
LINE
8
BLACK
6
CONTINUOUS
10
0.95388
20
-6.25099
11
0.95388
21
-6.32973
0
LINE
8
BLACK
6
CONTINUOUS
10
1.02512
20
-6.32973
11
1.02512
21
-6.28849
0
LINE
8
BLACK
6
CONTINUOUS
10
1.02512
20
-6.28849
11
1.02137
21
-6.28099
0
LINE
8
BLACK
6
CONTINUOUS
10
1.02137
20
-6.28099
11
1.01387
21
-6.27724
0
LINE
8
BLACK
6
CONTINUOUS
10
1.01387
20
-6.27724
11
0.998874
21
-6.27724
0
LINE
8
BLACK
6
CONTINUOUS
10
0.998874
20
-6.27724
11
0.991375
21
-6.28099
0
LINE
8
BLACK
6
CONTINUOUS
10
1.02512
20
-6.32599
11
1.01762
21
-6.32973
0
LINE
8
BLACK
6
CONTINUOUS
10
1.01762
20
-6.32973
11
0.998874
21
-6.32973
0
LINE
8
BLACK
6
CONTINUOUS
10
0.998874
20
-6.32973
11
0.991375
21
-6.32599
0
LINE
8
BLACK
6
CONTINUOUS
10
0.991375
20
-6.32599
11
0.987626
21
-6.31849
0
LINE
8
BLACK
6
CONTINUOUS
10
0.987626
20
-6.31849
11
0.987626
21
-6.31099
0
LINE
8
BLACK
6
CONTINUOUS
10
0.987626
20
-6.31099
11
0.991375
21
-6.30349
0
LINE
8
BLACK
6
CONTINUOUS
10
0.991375
20
-6.30349
11
0.998874
21
-6.29974
0
LINE
8
BLACK
6
CONTINUOUS
10
0.998874
20
-6.29974
11
1.01762
21
-6.29974
0
LINE
8
BLACK
6
CONTINUOUS
10
1.01762
20
-6.29974
11
1.02512
21
-6.29599
0
LINE
8
BLACK
6
CONTINUOUS
10
1.06262
20
-6.27724
11
1.06262
21
-6.35598
0
LINE
8
BLACK
6
CONTINUOUS
10
1.06262
20
-6.28099
11
1.07012
21
-6.27724
0
LINE
8
BLACK
6
CONTINUOUS
10
1.07012
20
-6.27724
11
1.08511
21
-6.27724
0
LINE
8
BLACK
6
CONTINUOUS
10
1.08511
20
-6.27724
11
1.09261
21
-6.28099
0
LINE
8
BLACK
6
CONTINUOUS
10
1.09261
20
-6.28099
11
1.09636
21
-6.28474
0
LINE
8
BLACK
6
CONTINUOUS
10
1.09636
20
-6.28474
11
1.10011
21
-6.29224
0
LINE
8
BLACK
6
CONTINUOUS
10
1.10011
20
-6.29224
11
1.10011
21
-6.31474
0
LINE
8
BLACK
6
CONTINUOUS
10
1.10011
20
-6.31474
11
1.09636
21
-6.32224
0
LINE
8
BLACK
6
CONTINUOUS
10
1.09636
20
-6.32224
11
1.09261
21
-6.32599
0
LINE
8
BLACK
6
CONTINUOUS
10
1.09261
20
-6.32599
11
1.08511
21
-6.32973
0
LINE
8
BLACK
6
CONTINUOUS
10
1.08511
20
-6.32973
11
1.07012
21
-6.32973
0
LINE
8
BLACK
6
CONTINUOUS
10
1.07012
20
-6.32973
11
1.06262
21
-6.32599
0
LINE
8
BLACK
6
CONTINUOUS
10
1.13386
20
-6.32224
11
1.13761
21
-6.32599
0
LINE
8
BLACK
6
CONTINUOUS
10
1.13761
20
-6.32599
11
1.13386
21
-6.32973
0
LINE
8
BLACK
6
CONTINUOUS
10
1.13386
20
-6.32973
11
1.13011
21
-6.32599
0
LINE
8
BLACK
6
CONTINUOUS
10
1.13011
20
-6.32599
11
1.13386
21
-6.32224
0
LINE
8
BLACK
6
CONTINUOUS
10
1.13386
20
-6.32224
11
1.13386
21
-6.32973
0
LINE
8
BLACK
6
CONTINUOUS
10
1.13386
20
-6.28099
11
1.13761
21
-6.28474
0
LINE
8
BLACK
6
CONTINUOUS
10
1.13761
20
-6.28474
11
1.13386
21
-6.28849
0
LINE
8
BLACK
6
CONTINUOUS
10
1.13386
20
-6.28849
11
1.13011
21
-6.28474
0
LINE
8
BLACK
6
CONTINUOUS
10
1.13011
20
-6.28474
11
1.13386
21
-6.28099
0
LINE
8
BLACK
6
CONTINUOUS
10
1.13386
20
-6.28099
11
1.13386
21
-6.28849
  0
ENDSEC
  0
EOF
